<svg width="41" height="40" viewBox="0 0 41 40" fill="none" xmlns="http://www.w3.org/2000/svg">
<ellipse cx="20.5" cy="20" rx="20.5" ry="20" fill="white"/>
<path d="M33.3135 20.3C33.3135 19.4222 33.2346 18.5889 33.0993 17.7778H20.3613V22.7889H27.6547C27.3278 24.4333 26.3696 25.8222 24.9492 26.7667V30.1H29.3004C31.848 27.7778 33.3135 24.3555 33.3135 20.3Z" fill="#4285F4"/>
<path d="M20.3619 33.3333C24.0142 33.3333 27.0691 32.1333 29.3011 30.1L24.9499 26.7667C23.7324 27.5667 22.1881 28.0555 20.3619 28.0555C16.8336 28.0555 13.8464 25.7111 12.7755 22.5444H8.28906V25.9778C10.5098 30.3333 15.0751 33.3333 20.3619 33.3333Z" fill="#34A853"/>
<path d="M12.7746 22.5444C12.4928 21.7444 12.3462 20.8889 12.3462 20C12.3462 19.1111 12.5041 18.2555 12.7746 17.4555V14.0222H8.28814C7.36379 15.8222 6.83398 17.8444 6.83398 20C6.83398 22.1555 7.36379 24.1778 8.28814 25.9778L12.7746 22.5444Z" fill="#FBBC05"/>
<path d="M20.3619 11.9444C22.3572 11.9444 24.1382 12.6222 25.5473 13.9444L29.4025 10.1444C27.0691 7.98888 24.0142 6.66666 20.3619 6.66666C15.0751 6.66666 10.5098 9.66666 8.28906 14.0222L12.7755 17.4555C13.8464 14.2889 16.8336 11.9444 20.3619 11.9444Z" fill="#EA4335"/>
</svg>
