<svg width="253" height="253" viewBox="0 0 253 253" fill="none" xmlns="http://www.w3.org/2000/svg">
<path d="M168.083 46.5924H201.353C201.353 46.5924 198.413 41.2389 189.846 42.0384C181.669 42.7822 181.244 39.4022 177.095 39.0024C172.946 38.6027 169.47 41.7399 168.083 46.5924Z" fill="#E0E0E0"/>
<path d="M81.122 134.545C81.122 134.545 77.7874 136.347 82.64 143.309C87.4925 150.272 90.6499 153.611 90.6499 153.611C90.6499 153.611 91.5708 155.256 90.1439 155.727C88.717 156.197 85.423 156.131 85.0182 158.009C84.5982 159.962 86.1921 161.551 89.137 162.689C92.0819 163.828 98.4474 166.626 99.0192 166.879C99.591 167.132 100.218 167.865 99.2975 168.341C98.3766 168.817 91.2369 170.573 92.2691 173.907C93.3014 177.242 102.045 179.129 102.996 179.352C103.948 179.574 104.216 179.929 104.211 180.435C104.206 180.941 101.752 181.305 99.7377 181.887C97.7238 182.469 95.4974 183.501 96.2564 185.378C97.0154 187.255 102.511 190.661 114.644 190.18L120.251 189.593L122.639 184.457C127.077 173.158 125.675 166.848 124.157 165.513C122.639 164.177 120.929 165.948 119.72 167.658C118.51 169.368 117.357 171.564 116.876 171.402C116.395 171.241 116.152 170.871 116.254 169.884C116.355 168.898 117.453 160.038 114.639 157.963C111.826 155.888 107.819 162.052 107.049 162.765C106.28 163.478 105.81 162.639 105.759 162.021C105.708 161.404 105.177 154.477 105.051 151.309C104.924 148.142 103.968 146.128 101.989 145.885C100.011 145.642 99.0647 148.779 98.1489 149.973C97.233 151.167 95.9832 149.756 95.9832 149.756C95.9832 149.756 93.863 145.677 88.8992 138.806C83.9353 131.934 81.0562 134.596 81.0562 134.596" fill="#EBEBEB"/>
<path d="M120.721 190.873C117.083 185.813 110.773 176.705 105.314 168.918C99.854 161.131 94.9103 154.087 91.2975 149.007C89.4911 146.477 88.0338 144.422 87.0167 143.001L85.8529 141.361L85.5544 140.936C85.4886 140.84 85.4583 140.784 85.4583 140.784C85.4583 140.784 85.4987 140.83 85.5696 140.926L85.8833 141.341L87.0724 142.96C88.0844 144.362 89.6024 146.406 91.3987 148.936C95.0368 153.996 100.001 161.029 105.455 168.817C110.91 176.604 117.21 185.722 120.823 190.797" fill="#E0E0E0"/>
<path d="M89.6225 158.292C89.7589 158.297 89.8945 158.316 90.0273 158.348C90.2854 158.393 90.6548 158.469 91.1152 158.57C92.0311 158.768 93.286 159.076 94.6572 159.44L98.1992 160.387L99.272 160.67C99.4061 160.693 99.5369 160.732 99.6616 160.786C99.5252 160.785 99.3894 160.768 99.2568 160.736C98.9987 160.69 98.6293 160.614 98.1689 160.508C97.2581 160.301 96.0032 160.002 94.6269 159.613L91.0849 158.692L90.0122 158.413C89.8774 158.391 89.7463 158.35 89.6225 158.292Z" fill="#E0E0E0"/>
<path d="M99.9959 160.402C99.9453 160.402 100.466 157.771 101.155 154.553C101.843 151.335 102.445 148.729 102.49 148.739C102.536 148.749 102.02 151.365 101.327 154.588C100.633 157.811 100.041 160.402 99.9959 160.402Z" fill="#E0E0E0"/>
<path d="M107.839 172.713C107.883 172.581 107.942 172.456 108.016 172.339L108.553 171.327C109.003 170.487 109.625 169.303 110.258 168.007C110.89 166.712 111.437 165.477 111.816 164.622L112.272 163.585C112.315 163.451 112.379 163.325 112.459 163.21C112.431 163.347 112.39 163.481 112.337 163.61C112.246 163.863 112.11 164.222 111.933 164.668C111.578 165.558 111.057 166.773 110.415 168.088C109.772 169.404 109.135 170.557 108.659 171.387C108.416 171.797 108.214 172.131 108.072 172.354C108.006 172.481 107.928 172.601 107.839 172.713Z" fill="#E0E0E0"/>
<path d="M98.0422 172.895C98.1657 172.861 98.2936 172.845 98.4217 172.849L99.4691 172.789C100.35 172.743 101.569 172.698 102.915 172.652C104.261 172.607 105.48 172.581 106.366 172.571H107.413C107.541 172.56 107.67 172.56 107.798 172.571C107.673 172.605 107.543 172.622 107.413 172.622L106.371 172.682C105.485 172.723 104.266 172.774 102.92 172.814C101.574 172.855 100.355 172.885 99.4691 172.895H98.4268C98.299 172.91 98.1699 172.91 98.0422 172.895Z" fill="#E0E0E0"/>
<path d="M103.583 184.69C103.749 184.653 103.919 184.634 104.089 184.634L105.43 184.553C106.558 184.493 108.122 184.417 109.847 184.346C111.573 184.275 113.136 184.224 114.265 184.194L115.605 184.164C115.774 184.15 115.943 184.15 116.111 184.164C115.945 184.196 115.775 184.215 115.605 184.219L114.265 184.3C113.136 184.361 111.573 184.437 109.847 184.508C108.122 184.579 106.558 184.629 105.43 184.66L104.089 184.69C103.92 184.704 103.751 184.704 103.583 184.69Z" fill="#E0E0E0"/>
<path d="M115.778 184.083C115.835 183.917 115.906 183.756 115.99 183.602L116.628 182.312C117.164 181.224 117.893 179.721 118.652 178.036C119.411 176.351 120.069 174.813 120.534 173.69L121.086 172.364C121.146 172.2 121.219 172.041 121.303 171.888C121.268 172.062 121.216 172.231 121.146 172.394C121.035 172.718 120.868 173.178 120.64 173.74C120.205 174.874 119.568 176.427 118.804 178.112C118.04 179.797 117.286 181.3 116.724 182.373C116.441 182.909 116.218 183.344 116.036 183.638C115.961 183.792 115.875 183.941 115.778 184.083Z" fill="#E0E0E0"/>
<path d="M162.831 109.407C156.809 102.652 157.386 92.9015 159.668 84.5576C160.048 83.161 160.245 81.643 161.186 80.5703C162.127 79.4976 163.908 79.022 165.027 79.9125C165.953 80.6513 166.12 81.9719 166.464 83.1155C166.921 84.6362 167.798 85.9971 168.994 87.0421C169.778 87.7201 170.815 88.2615 171.817 87.9883C173.188 87.6037 173.725 85.9643 174.049 84.5627C174.646 81.9551 175.246 79.3475 175.85 76.7399C176.1 75.3249 176.573 73.9586 177.252 72.6919C178 71.4674 179.276 70.4655 180.672 70.4098C182.069 70.3542 183.551 71.5079 183.506 72.9398C183.422 73.531 183.299 74.116 183.136 74.6906C183.06 74.9776 183.07 75.2806 183.164 75.5621C183.259 75.8437 183.434 76.0913 183.668 76.2744C184.174 76.5729 184.836 76.3098 185.353 75.9961C187.129 74.9284 188.54 73.3446 189.881 71.7507C191.222 70.1568 192.548 68.5225 194.223 67.2929C195.898 66.0633 197.992 65.2689 200.022 65.6332C202.051 65.9975 203.887 67.7382 203.928 69.8178C203.968 71.8975 202.349 73.6381 200.72 74.9335C198.312 76.8567 195.64 78.4228 192.786 79.5836C192.246 79.734 191.769 80.0532 191.425 80.4944C190.919 81.3546 191.561 82.4881 192.406 83.0244C193.368 83.6164 194.521 83.7784 195.584 84.1629C196.646 84.5475 197.709 85.3115 197.876 86.4349C198.109 87.9984 196.56 89.2128 195.154 89.9161C192.337 91.3161 189.301 92.2232 186.177 92.5979C185.059 92.7295 183.9 92.8054 182.898 93.3266C181.897 93.8478 181.102 94.9913 181.38 96.0944C181.659 97.1975 182.858 97.8199 183.981 97.8705C185.105 97.9211 186.208 97.5719 187.326 97.4302C189.416 97.157 191.88 97.8755 192.7 99.8287C192.943 100.492 193.029 101.204 192.95 101.906C192.871 102.609 192.629 103.284 192.244 103.877C191.474 105.047 190.476 106.05 189.309 106.827C185.401 109.76 180.784 111.603 175.931 112.17C171.114 112.676 166.884 112.099 162.841 109.433" fill="#F5F5F5"/>
<path d="M164.056 110.217C165.148 106.958 164.005 108.593 166.257 104.651C168.739 100.396 171.464 96.2874 174.418 92.345C175.194 91.2925 175.962 90.2552 176.721 89.2331C177.48 88.2211 178.239 87.2091 179.028 86.2528C180.564 84.4444 182.197 82.7214 183.921 81.0916C185.555 79.523 187.165 78.096 188.683 76.7703C190.201 75.4446 191.638 74.2403 192.994 73.203C195.129 71.5483 197.391 70.0645 199.759 68.7654C200.594 68.3049 201.277 67.971 201.707 67.7534L202.213 67.5055L202.39 67.4296C202.338 67.4688 202.282 67.5027 202.223 67.5308L201.717 67.804C201.272 68.0418 200.619 68.391 199.794 68.8615C197.454 70.1941 195.218 71.7012 193.105 73.37C191.759 74.4174 190.332 75.6268 188.824 76.9525C187.316 78.2782 185.717 79.7152 184.088 81.2838C182.377 82.9131 180.753 84.6326 179.225 86.4349C178.436 87.3761 177.707 88.383 176.933 89.4051L174.631 92.517C171.687 96.4461 168.964 100.536 166.474 104.767C164.217 108.699 165.351 107.039 164.238 110.278" fill="#E0E0E0"/>
<path d="M179.124 86.2628C179.103 86.0542 179.103 85.844 179.124 85.6354C179.124 85.2306 179.19 84.6234 179.256 83.9302C179.387 82.4881 179.64 80.5096 179.923 78.3288C180.207 76.1479 180.429 74.1694 180.536 72.7324C180.591 72.0139 180.632 71.437 180.657 71.0322C180.655 70.8229 180.677 70.6141 180.723 70.4099C180.756 70.6172 180.768 70.8275 180.758 71.0373C180.758 71.437 180.758 72.0493 180.723 72.7425C180.662 74.1897 180.47 76.1783 180.181 78.3642C179.893 80.5501 179.64 82.4628 179.443 83.9302C179.357 84.6032 179.286 85.1699 179.23 85.6253C179.218 85.8411 179.183 86.0549 179.124 86.2628Z" fill="#E0E0E0"/>
<path d="M197.846 87.1584C197.599 87.1568 197.354 87.1297 197.112 87.0775C196.642 87.0066 195.959 86.9054 195.114 86.8042C193.429 86.5917 191.066 86.3842 188.495 86.2628C185.925 86.1414 183.552 86.1414 181.846 86.1869C180.996 86.1869 180.328 86.2375 179.822 86.2577C179.575 86.2785 179.326 86.2785 179.079 86.2577C179.321 86.1978 179.568 86.1605 179.817 86.1464C180.293 86.0958 180.981 86.0351 181.841 85.9946C183.547 85.8985 185.889 85.8732 188.51 85.9946C190.731 86.0907 192.945 86.2985 195.144 86.617C195.984 86.7435 196.662 86.8751 197.133 86.9712C197.376 87.0106 197.615 87.0733 197.846 87.1584Z" fill="#E0E0E0"/>
<path d="M166.555 104.368C166.517 104.289 166.494 104.206 166.484 104.12C166.443 103.922 166.393 103.684 166.327 103.396C166.2 102.769 166.033 101.878 165.846 100.724C165.467 98.4625 165.042 95.3203 164.617 91.844C164.191 88.3678 163.797 85.2256 163.468 82.9587C163.306 81.8556 163.169 80.9347 163.068 80.2769C163.028 79.9834 162.992 79.7405 162.962 79.5432C162.954 79.4573 162.954 79.371 162.962 79.2851C162.998 79.3639 163.024 79.4473 163.038 79.5331L163.19 80.2566C163.321 80.8841 163.483 81.7746 163.67 82.9283C164.05 85.1901 164.475 88.3324 164.9 91.8086C165.325 95.2848 165.72 98.4271 166.049 100.694C166.215 101.797 166.347 102.718 166.448 103.381C166.494 103.669 166.524 103.912 166.555 104.109C166.566 104.195 166.566 104.282 166.555 104.368Z" fill="#E0E0E0"/>
<path d="M192.245 102.328C192.161 102.355 192.074 102.369 191.987 102.369L191.238 102.44L188.485 102.662C186.163 102.85 182.955 103.168 179.413 103.482C175.871 103.796 172.653 104.084 170.305 104.226C169.141 104.297 168.2 104.342 167.547 104.363H166.798C166.711 104.376 166.622 104.376 166.535 104.363C166.619 104.338 166.706 104.325 166.793 104.322L167.542 104.251L170.295 104.029C172.617 103.841 175.825 103.523 179.367 103.209C182.909 102.895 186.122 102.607 188.475 102.47C189.644 102.399 190.585 102.349 191.238 102.328H191.987C192.072 102.318 192.159 102.318 192.245 102.328Z" fill="#E0E0E0"/>
<path d="M212.17 153.824C212.153 153.906 212.125 153.986 212.089 154.062L211.811 154.735C211.553 155.342 211.189 156.197 210.733 157.265L206.832 166.287L206.807 166.337H206.751L194.496 168.361L190.387 169.034L190.2 169.065L190.245 168.883C191.257 164.941 192.163 161.293 192.947 158.231L193.003 158.348L185.803 155.129L183.814 154.224L183.308 153.981C183.247 153.955 183.19 153.923 183.136 153.885L183.318 153.951L183.849 154.168L185.873 155.023L193.109 158.16L193.19 158.196V158.277C192.421 161.363 191.515 164.997 190.534 168.943L190.392 168.791L194.501 168.113L206.761 166.12L206.675 166.186L210.657 157.204C211.138 156.131 211.523 155.281 211.796 154.674L212.099 154.011C212.119 153.947 212.143 153.885 212.17 153.824Z" fill="#E0E0E0"/>
<path d="M191.825 167.613L191.486 168.493L192.022 169.272L191.081 169.227L190.509 169.976L190.261 169.065L189.371 168.751L190.16 168.235L190.185 167.294L190.919 167.886L191.825 167.613Z" fill="#E0E0E0"/>
<path d="M183.409 153.318L183.242 153.758L183.505 154.143L183.04 154.117L182.757 154.492L182.63 154.041L182.19 153.885L182.579 153.627L182.595 153.156L182.959 153.449L183.409 153.318Z" fill="#E0E0E0"/>
<path d="M207.177 165.745L207.01 166.186L207.273 166.57L206.808 166.55L206.524 166.924L206.398 166.469L205.958 166.317L206.347 166.059L206.357 165.589L206.727 165.882L207.177 165.745Z" fill="#E0E0E0"/>
<path d="M193.459 157.857L193.292 158.292L193.56 158.681L193.089 158.656L192.806 159.031L192.684 158.575L192.239 158.423L192.634 158.165L192.644 157.695L193.008 157.988L193.459 157.857Z" fill="#E0E0E0"/>
<path d="M212.743 153.384L212.576 153.824L212.844 154.209L212.374 154.188L212.09 154.563L211.969 154.107L211.524 153.951L211.918 153.698L211.928 153.227L212.293 153.52L212.743 153.384Z" fill="#E0E0E0"/>
<path d="M59.3739 190.21H85.8681C85.8681 190.21 83.5253 185.945 76.7044 186.567C70.1922 187.159 69.8633 184.467 66.549 184.138C63.2347 183.81 60.4821 186.345 59.3739 190.21Z" fill="#E0E0E0"/>
<path d="M64.6364 85.9137H91.1255C91.1255 85.9137 88.7828 81.6532 81.9619 82.2705C75.4547 82.8676 75.1208 80.1757 71.8115 79.8468C68.5023 79.5179 65.7395 82.0529 64.6364 85.9137Z" fill="#F5F5F5"/>
<path d="M199.172 104.337H220.93C220.93 104.337 219.007 100.836 213.406 101.342C208.052 101.848 207.779 99.6213 205.062 99.348C202.345 99.0748 200.078 101.165 199.172 104.337Z" fill="#F5F5F5"/>
<path d="M155.711 147.291C156.794 139.14 151.061 132.41 143.896 128.367C136.731 124.324 128.417 122.958 120.504 120.721C113.04 118.601 105.617 115.505 100.091 110.06C94.566 104.615 91.2466 96.4334 93.2301 88.9345C93.7361 87.0522 94.6216 85.1597 96.2408 84.0718C97.86 82.9839 100.324 83.0143 101.534 84.5424C104.104 87.8011 99.0947 93.6504 102.232 96.3525C102.95 96.9799 103.942 97.2076 104.686 97.7996C106.664 99.3834 106.027 102.455 106.305 104.975C106.857 109.959 111.532 113.42 116.122 115.439C122.269 118.141 128.928 119.411 135.446 121.005C141.963 122.599 148.546 124.628 153.975 128.595C159.405 132.562 164.126 138.715 164.095 145.44C164.095 147.317 163.848 149.624 162.669 151.081C161.49 152.539 159.992 152.847 158.292 152.048C156.591 151.248 155.407 150.024 155.721 147.302" fill="black"/>
<g opacity="0.8">
<path opacity="0.8" d="M155.711 147.291C156.794 139.14 151.061 132.41 143.896 128.367C136.731 124.324 128.417 122.958 120.504 120.721C113.04 118.601 105.617 115.505 100.091 110.06C94.566 104.615 91.2466 96.4334 93.2301 88.9345C93.7361 87.0522 94.6216 85.1597 96.2408 84.0718C97.86 82.9839 100.324 83.0143 101.534 84.5424C104.104 87.8011 99.0947 93.6504 102.232 96.3525C102.95 96.9799 103.942 97.2076 104.686 97.7996C106.664 99.3834 106.027 102.455 106.305 104.975C106.857 109.959 111.532 113.42 116.122 115.439C122.269 118.141 128.928 119.411 135.446 121.005C141.963 122.599 148.546 124.628 153.975 128.595C159.405 132.562 164.126 138.715 164.095 145.44C164.095 147.317 163.848 149.624 162.669 151.081C161.49 152.539 159.992 152.847 158.292 152.048C156.591 151.248 155.407 150.024 155.721 147.302" fill="white"/>
</g>
<path d="M121.05 82.478C120.792 79.442 123.044 76.8259 125.604 75.4193C128.165 74.0126 131.099 73.4357 133.736 72.1859C140.288 69.0791 144.453 61.7674 144.761 54.2735C145.07 46.7797 141.817 39.2807 136.736 33.7755C134.667 31.5389 132.127 29.1911 132.096 26.1399C132.066 22.9521 135.132 20.4424 138.239 20.4828C141.346 20.5233 144.169 22.5929 146.016 25.1886C147.863 27.7844 148.88 30.866 149.877 33.902C149.169 32.6268 150.621 31.0532 152.028 31.1898C153.434 31.3264 154.558 32.4953 155.403 33.6591C159.146 38.7417 160.942 44.9989 160.463 51.2932C159.956 57.4701 157.158 63.2344 152.62 67.4548C147.625 72.0088 141.022 74.1391 134.616 76.1631L121.253 80.3781" fill="black"/>
<g opacity="0.8">
<path opacity="0.8" d="M121.05 82.478C120.792 79.442 123.044 76.8259 125.604 75.4193C128.165 74.0126 131.099 73.4357 133.736 72.1859C140.288 69.0791 144.453 61.7674 144.761 54.2735C145.07 46.7797 141.817 39.2807 136.736 33.7755C134.667 31.5389 132.127 29.1911 132.096 26.1399C132.066 22.9521 135.132 20.4424 138.239 20.4828C141.346 20.5233 144.169 22.5929 146.016 25.1886C147.863 27.7844 148.88 30.866 149.877 33.902C149.169 32.6268 150.621 31.0532 152.028 31.1898C153.434 31.3264 154.558 32.4953 155.403 33.6591C159.146 38.7417 160.942 44.9989 160.463 51.2932C159.956 57.4701 157.158 63.2344 152.62 67.4548C147.625 72.0088 141.022 74.1391 134.616 76.1631L121.253 80.3781" fill="white"/>
</g>
<path d="M117.331 18.9851C116.653 19.2647 116.11 19.7951 115.814 20.4658C115.518 21.1364 115.492 21.8955 115.742 22.5845C115.993 23.2736 116.499 23.8393 117.157 24.1638C117.814 24.4883 118.571 24.5465 119.27 24.3261C119.97 24.1057 120.557 23.6238 120.909 22.981C121.261 22.3383 121.352 21.5842 121.162 20.8763C120.972 20.1683 120.515 19.5611 119.888 19.1814C119.261 18.8017 118.512 18.6788 117.796 18.8384" fill="black"/>
<g opacity="0.8">
<path opacity="0.8" d="M117.331 18.9851C116.653 19.2647 116.11 19.7951 115.814 20.4658C115.518 21.1364 115.492 21.8955 115.742 22.5845C115.993 23.2736 116.499 23.8393 117.157 24.1638C117.814 24.4883 118.571 24.5465 119.27 24.3261C119.97 24.1057 120.557 23.6238 120.909 22.981C121.261 22.3383 121.352 21.5842 121.162 20.8763C120.972 20.1683 120.515 19.5611 119.888 19.1814C119.261 18.8017 118.512 18.6788 117.796 18.8384" fill="white"/>
</g>
<path d="M133.812 213.957C132.172 210.562 133.604 206.327 136.215 203.604C138.826 200.882 142.388 199.329 145.829 197.811C153.449 194.451 161.515 190.453 165.386 183.086C166.691 180.601 167.435 177.869 168.169 175.157C169.591 169.915 170.927 163.959 168.068 159.339C167.243 158.009 166.008 156.809 164.47 156.556C162.714 156.243 160.928 157.209 159.835 158.621C158.822 160.096 158.213 161.811 158.069 163.595C157.644 166.95 157.998 170.365 157.644 173.715C157.29 177.065 156.07 180.642 153.318 182.555C149.943 184.908 145.131 184.381 141.857 186.866C139.211 188.89 138.204 192.351 136.139 194.962C134.398 197.143 131.965 198.63 129.738 200.31C127.512 201.99 125.356 204.034 124.597 206.721C124.199 208.126 124.214 209.615 124.641 211.011C125.068 212.407 125.889 213.651 127.004 214.592C128.12 215.534 129.483 216.133 130.931 216.32C132.379 216.506 133.85 216.271 135.168 215.642" fill="black"/>
<g opacity="0.8">
<path opacity="0.8" d="M133.812 213.957C132.172 210.562 133.604 206.327 136.215 203.604C138.826 200.882 142.388 199.329 145.829 197.811C153.449 194.451 161.515 190.453 165.386 183.086C166.691 180.601 167.435 177.869 168.169 175.157C169.591 169.915 170.927 163.959 168.068 159.339C167.243 158.009 166.008 156.809 164.47 156.556C162.714 156.243 160.928 157.209 159.835 158.621C158.822 160.096 158.213 161.811 158.069 163.595C157.644 166.95 157.998 170.365 157.644 173.715C157.29 177.065 156.07 180.642 153.318 182.555C149.943 184.908 145.131 184.381 141.857 186.866C139.211 188.89 138.204 192.351 136.139 194.962C134.398 197.143 131.965 198.63 129.738 200.31C127.512 201.99 125.356 204.034 124.597 206.721C124.199 208.126 124.214 209.615 124.641 211.011C125.068 212.407 125.889 213.651 127.004 214.592C128.12 215.534 129.483 216.133 130.931 216.32C132.379 216.506 133.85 216.271 135.168 215.642" fill="white"/>
</g>
<path d="M83.1509 42.4332C81.8036 41.4329 80.7144 40.1257 79.9736 38.62C79.2328 37.1144 78.8619 35.4537 78.8915 33.7759C78.9212 32.0982 79.3507 30.4517 80.1443 28.9732C80.9378 27.4947 82.0727 26.2268 83.4545 25.2748C85.013 24.2071 86.8548 23.5493 88.2412 22.2388C89.4708 21.0952 90.2652 19.5114 91.6466 18.55C92.5087 17.9387 93.5436 17.6187 94.6003 17.6369C95.657 17.6551 96.6802 18.0103 97.5208 18.6509C98.3614 19.2916 98.9753 20.184 99.2731 21.198C99.5708 22.2121 99.5367 23.2947 99.1759 24.2881C98.5434 26.0641 96.9495 27.3645 96.2816 29.1254C95.5631 31.028 96.0286 33.1734 95.7756 35.1671C95.61 36.4083 95.1671 37.5963 94.4799 38.6431C93.7926 39.6899 92.8786 40.5685 91.8055 41.2139C90.7324 41.8594 89.5278 42.255 88.281 42.3714C87.0342 42.4879 85.7772 42.3222 84.6031 41.8867" fill="black"/>
<g opacity="0.8">
<path opacity="0.8" d="M83.1509 42.4332C81.8036 41.4329 80.7144 40.1257 79.9736 38.62C79.2328 37.1144 78.8619 35.4537 78.8915 33.7759C78.9212 32.0982 79.3507 30.4517 80.1443 28.9732C80.9378 27.4947 82.0727 26.2268 83.4545 25.2748C85.013 24.2071 86.8548 23.5493 88.2412 22.2388C89.4708 21.0952 90.2652 19.5114 91.6466 18.55C92.5087 17.9387 93.5436 17.6187 94.6003 17.6369C95.657 17.6551 96.6802 18.0103 97.5208 18.6509C98.3614 19.2916 98.9753 20.184 99.2731 21.198C99.5708 22.2121 99.5367 23.2947 99.1759 24.2881C98.5434 26.0641 96.9495 27.3645 96.2816 29.1254C95.5631 31.028 96.0286 33.1734 95.7756 35.1671C95.61 36.4083 95.1671 37.5963 94.4799 38.6431C93.7926 39.6899 92.8786 40.5685 91.8055 41.2139C90.7324 41.8594 89.5278 42.255 88.281 42.3714C87.0342 42.4879 85.7772 42.3222 84.6031 41.8867" fill="white"/>
</g>
<path d="M83.343 31.5845H89.5618V44.4015C89.5618 44.761 89.491 45.117 89.3534 45.4491C89.2158 45.7812 89.0142 46.083 88.76 46.3372C88.5058 46.5914 88.204 46.793 87.8719 46.9306C87.5398 47.0682 87.1838 47.139 86.8243 47.139H86.0856C85.3595 47.139 84.6633 46.8506 84.1499 46.3372C83.6365 45.8238 83.3481 45.1275 83.3481 44.4015V31.5845H83.343Z" fill="black"/>
<path d="M83.343 31.5845L86.4499 25.8819L89.5618 31.5845H83.343Z" fill="#FFBE9D"/>
<path d="M85.2202 28.1386C85.2202 28.1386 86.1664 29.5605 87.6844 28.1386L86.4548 25.8819L85.2202 28.1386Z" fill="black"/>
<path d="M89.6477 43.7791C88.5986 43.9059 87.541 43.9482 86.4852 43.9056C85.431 43.9482 84.3751 43.9059 83.3277 43.7791C84.3751 43.6523 85.431 43.61 86.4852 43.6526C87.541 43.61 88.5986 43.6523 89.6477 43.7791Z" fill="black"/>
<path d="M89.5619 42.8227C88.5349 42.9494 87.4992 42.9917 86.4652 42.9492C85.4312 42.9917 84.3955 42.9494 83.3685 42.8227C84.396 42.7023 85.4314 42.6617 86.4652 42.7012C87.499 42.6617 88.5344 42.7023 89.5619 42.8227Z" fill="black"/>
<path d="M85.1697 31.6755C85.2355 31.6755 85.2962 34.1549 85.2962 37.2162C85.2962 40.2775 85.2355 42.7822 85.1697 42.7822C85.1039 42.7822 85.0432 40.2978 85.0432 37.2162C85.0432 34.1347 85.0989 31.6755 85.1697 31.6755Z" fill="#FAFAFA"/>
<path d="M87.6847 31.6755C87.7555 31.6755 87.8112 34.1549 87.8112 37.2162C87.8112 40.2775 87.7555 42.7822 87.6847 42.7822C87.6138 42.7822 87.5582 40.2978 87.5582 37.2162C87.5582 34.1347 87.6138 31.6755 87.6847 31.6755Z" fill="#FAFAFA"/>
<path d="M137.374 206.812L165.624 208.022L166.307 209.666L147.788 239.723L114.362 238.746L137.374 206.812Z" fill="black"/>
<path d="M113.096 235.816L146.72 237.739L164.288 210.481L151.952 211.483L120.737 222.473L113.096 235.816Z" fill="#E0E0E0"/>
<path d="M108.37 233.797L139.236 234.303C137.956 230.352 140.977 224.791 145.131 222.918C147.884 221.679 153.06 220.07 155.732 218.698C160.792 216.092 165.396 211.164 164.997 206.929L152.306 206.509L136.114 205.881C134.758 209.899 131.864 212.525 127.462 214.109C123.525 215.526 119.042 215.521 115.196 217.145C109.013 219.736 106.043 228.13 108.345 233.813" fill="#EBEBEB"/>
<path d="M108.371 233.797C108.371 233.797 108.34 233.732 108.295 233.595L108.082 233.003C107.97 232.672 107.882 232.334 107.819 231.991C107.716 231.528 107.645 231.057 107.607 230.584C107.508 229.27 107.59 227.949 107.849 226.658C108.209 224.918 108.881 223.259 109.833 221.76C110.101 221.326 110.397 220.91 110.718 220.515C110.885 220.318 111.047 220.1 111.224 219.908L111.796 219.326C111.987 219.126 112.194 218.942 112.414 218.774C112.631 218.597 112.844 218.41 113.076 218.243C113.558 217.904 114.066 217.603 114.594 217.342C116.735 216.264 119.29 215.824 121.952 215.318C123.288 215.075 124.664 214.812 126.04 214.443C127.456 214.055 128.823 213.504 130.113 212.803C130.78 212.443 131.415 212.026 132.011 211.559C132.625 211.086 133.19 210.552 133.696 209.965C134.744 208.753 135.542 207.347 136.044 205.826L136.074 205.74H136.16L149.645 206.246C154.326 206.428 159.168 206.554 164.127 206.721L165.027 206.752H165.139V206.863C165.207 207.832 165.069 208.805 164.734 209.717C164.574 210.167 164.385 210.607 164.167 211.032C163.944 211.451 163.697 211.856 163.429 212.247C162.362 213.779 161.072 215.143 159.603 216.295C158.183 217.426 156.632 218.382 154.983 219.144C153.354 219.877 151.704 220.474 150.09 221.071C148.476 221.669 146.877 222.235 145.364 222.893C144.619 223.223 143.92 223.648 143.285 224.158C142.956 224.391 142.683 224.689 142.384 224.947C142.085 225.205 141.827 225.519 141.59 225.838C140.604 227.028 139.869 228.405 139.429 229.886C138.982 231.288 138.956 232.79 139.353 234.207L139.399 234.344H139.257L116.796 233.949L110.567 233.823L108.937 233.777H108.376C108.376 233.777 108.568 233.777 108.937 233.777H110.572L116.801 233.848L139.257 234.162L139.161 234.293C138.745 232.838 138.768 231.293 139.227 229.851C139.667 228.336 140.412 226.927 141.418 225.711C141.655 225.388 141.954 225.109 142.222 224.806C142.49 224.502 142.809 224.234 143.143 223.991C143.791 223.468 144.505 223.034 145.268 222.701C146.786 222.033 148.395 221.461 150.009 220.864C151.624 220.267 153.268 219.665 154.882 218.936C156.509 218.182 158.038 217.234 159.436 216.113C160.886 214.979 162.158 213.635 163.211 212.125C163.475 211.747 163.72 211.355 163.945 210.951C164.156 210.537 164.341 210.11 164.496 209.671C164.819 208.793 164.953 207.857 164.891 206.924L165.012 207.035L164.107 207.01C159.148 206.843 154.305 206.711 149.63 206.504L136.14 205.998L136.256 205.917C135.74 207.465 134.925 208.897 133.858 210.132C133.341 210.729 132.765 211.271 132.137 211.751C131.531 212.227 130.885 212.648 130.205 213.011C128.901 213.72 127.518 214.273 126.086 214.66C124.694 215.04 123.313 215.293 121.977 215.531C119.315 216.006 116.77 216.452 114.66 217.504C114.144 217.758 113.648 218.053 113.178 218.385C112.945 218.547 112.737 218.734 112.52 218.891C112.302 219.056 112.097 219.239 111.908 219.437L111.321 220.019C111.138 220.211 110.982 220.424 110.815 220.621C110.492 221.009 110.196 221.418 109.929 221.846C108.977 223.327 108.303 224.97 107.941 226.693C107.669 227.973 107.575 229.284 107.662 230.589C107.692 231.061 107.757 231.529 107.855 231.991C107.911 232.334 107.992 232.672 108.097 233.003C108.183 233.266 108.244 233.463 108.29 233.605C108.335 233.747 108.371 233.797 108.371 233.797Z" fill="black"/>
<path d="M144.813 206.382C144.813 206.382 144.854 206.185 144.884 205.831C144.921 205.333 144.838 204.833 144.641 204.373C144.366 203.689 143.847 203.13 143.184 202.805C142.778 202.616 142.338 202.51 141.89 202.495C141.442 202.479 140.996 202.554 140.577 202.714C140.159 202.875 139.777 203.118 139.455 203.429C139.133 203.74 138.876 204.113 138.701 204.525C138.391 205.197 138.287 205.945 138.402 206.676C138.476 207.167 138.648 207.639 138.908 208.062C139.1 208.366 139.242 208.507 139.227 208.523C139.07 208.415 138.936 208.277 138.832 208.118C138.519 207.701 138.306 207.218 138.21 206.706C138.06 205.939 138.15 205.143 138.468 204.429C138.653 203.986 138.926 203.585 139.271 203.25C139.615 202.916 140.025 202.655 140.473 202.484C140.922 202.313 141.401 202.234 141.881 202.254C142.361 202.273 142.831 202.39 143.265 202.597C143.969 202.955 144.512 203.566 144.783 204.308C144.972 204.79 145.031 205.313 144.955 205.826C144.934 205.965 144.901 206.103 144.854 206.236C144.843 206.342 144.823 206.382 144.813 206.382Z" fill="black"/>
<path d="M149.655 206.382C149.63 206.382 149.696 206.185 149.726 205.831C149.761 205.333 149.678 204.833 149.483 204.373C149.205 203.689 148.685 203.13 148.021 202.805C147.615 202.616 147.175 202.511 146.727 202.496C146.28 202.481 145.834 202.556 145.415 202.716C144.997 202.877 144.616 203.12 144.293 203.43C143.971 203.741 143.714 204.113 143.538 204.525C143.229 205.197 143.127 205.946 143.244 206.676C143.316 207.168 143.488 207.64 143.75 208.062C143.943 208.366 144.084 208.507 144.069 208.523C143.909 208.418 143.772 208.28 143.669 208.118C143.358 207.7 143.145 207.218 143.047 206.706C142.901 205.938 142.993 205.144 143.31 204.429C143.495 203.986 143.768 203.586 144.113 203.252C144.457 202.918 144.866 202.658 145.314 202.486C145.762 202.315 146.24 202.237 146.719 202.256C147.199 202.275 147.669 202.391 148.102 202.597C148.806 202.955 149.349 203.566 149.62 204.308C149.808 204.79 149.869 205.313 149.797 205.826C149.778 205.966 149.742 206.104 149.691 206.235C149.69 206.286 149.678 206.336 149.655 206.382Z" fill="black"/>
<path d="M153.319 206.635C153.319 206.635 153.349 206.433 153.36 206.079C153.367 205.579 153.256 205.085 153.036 204.637C152.719 203.97 152.168 203.444 151.487 203.159C151.072 202.995 150.628 202.915 150.182 202.923C149.735 202.932 149.295 203.029 148.887 203.21C148.064 203.586 147.425 204.274 147.11 205.122C146.84 205.811 146.778 206.564 146.933 207.288C147.04 207.777 147.247 208.239 147.541 208.644C147.748 208.933 147.9 209.069 147.885 209.084C147.72 208.989 147.576 208.859 147.465 208.705C147.128 208.306 146.888 207.835 146.761 207.328C146.571 206.57 146.617 205.773 146.893 205.041C147.052 204.588 147.302 204.173 147.628 203.819C147.953 203.466 148.347 203.182 148.785 202.986C149.223 202.79 149.697 202.684 150.177 202.677C150.657 202.669 151.134 202.759 151.578 202.941C152.302 203.257 152.879 203.836 153.193 204.561C153.413 205.035 153.503 205.558 153.456 206.079C153.445 206.22 153.418 206.359 153.375 206.494C153.36 206.59 153.319 206.635 153.319 206.635Z" fill="black"/>
<path d="M157.27 206.858C157.27 206.858 157.27 206.655 157.27 206.301C157.254 205.802 157.117 205.314 156.871 204.879C156.521 204.229 155.942 203.731 155.246 203.483C154.822 203.34 154.374 203.283 153.928 203.316C153.481 203.35 153.046 203.473 152.649 203.677C152.251 203.882 151.898 204.165 151.611 204.509C151.325 204.853 151.111 205.251 150.981 205.679C150.745 206.38 150.724 207.136 150.92 207.85C151.053 208.333 151.284 208.784 151.598 209.175C151.821 209.449 151.978 209.575 151.963 209.595C151.793 209.507 151.643 209.384 151.522 209.236C151.167 208.855 150.902 208.398 150.748 207.9C150.515 207.154 150.515 206.354 150.748 205.608C150.885 205.148 151.112 204.72 151.417 204.35C151.723 203.98 152.099 203.675 152.524 203.452C152.953 203.233 153.421 203.103 153.901 203.071C154.382 203.039 154.863 203.105 155.317 203.265C156.054 203.54 156.661 204.082 157.017 204.783C157.263 205.25 157.38 205.774 157.356 206.301C157.352 206.441 157.333 206.58 157.301 206.716C157.296 206.812 157.281 206.858 157.27 206.858Z" fill="black"/>
<path d="M161.217 206.767C161.217 206.767 161.217 206.564 161.217 206.21C161.187 205.711 161.036 205.227 160.777 204.798C160.409 204.159 159.818 203.679 159.117 203.447C158.689 203.315 158.239 203.27 157.793 203.316C157.347 203.361 156.915 203.496 156.523 203.713C156.13 203.929 155.785 204.222 155.509 204.575C155.232 204.927 155.029 205.332 154.913 205.765C154.731 206.358 154.701 206.987 154.825 207.594C154.95 208.202 155.225 208.768 155.626 209.241C155.859 209.509 156.021 209.631 156.006 209.646C155.832 209.568 155.679 209.452 155.555 209.307C155.191 208.934 154.914 208.485 154.746 207.991C154.493 207.251 154.474 206.451 154.69 205.699C154.814 205.236 155.03 204.802 155.325 204.423C155.619 204.044 155.987 203.728 156.405 203.493C156.827 203.263 157.291 203.121 157.77 203.075C158.248 203.03 158.731 203.083 159.188 203.23C159.935 203.486 160.558 204.013 160.934 204.707C161.193 205.171 161.323 205.695 161.314 206.225C161.313 206.367 161.298 206.507 161.268 206.645C161.243 206.716 161.227 206.767 161.217 206.767Z" fill="black"/>
<path d="M164.547 207.207C164.547 207.207 164.547 207.005 164.547 206.651C164.536 206.151 164.404 205.661 164.162 205.224C163.819 204.572 163.248 204.07 162.558 203.812C162.136 203.663 161.688 203.601 161.241 203.628C160.794 203.656 160.358 203.774 159.957 203.974C159.557 204.174 159.201 204.453 158.91 204.794C158.62 205.134 158.401 205.53 158.267 205.957C158.063 206.542 158.009 207.169 158.109 207.781C158.208 208.392 158.459 208.969 158.839 209.459C159.062 209.737 159.213 209.864 159.203 209.884C159.034 209.794 158.886 209.67 158.768 209.52C158.414 209.136 158.155 208.675 158.009 208.174C157.786 207.424 157.798 206.624 158.044 205.881C158.186 205.423 158.419 204.998 158.728 204.631C159.038 204.264 159.418 203.963 159.846 203.746C160.277 203.533 160.747 203.409 161.227 203.383C161.707 203.357 162.187 203.429 162.639 203.594C163.376 203.878 163.976 204.432 164.319 205.143C164.559 205.611 164.671 206.135 164.643 206.661C164.637 206.801 164.617 206.94 164.582 207.076C164.572 207.162 164.557 207.212 164.547 207.207Z" fill="black"/>
<path d="M179.125 103.553C177.728 103.511 176.329 103.575 174.941 103.745C170.729 104.287 166.861 106.35 164.065 109.546C161.269 112.742 159.738 116.85 159.761 121.096C159.746 123.89 160.108 126.672 160.838 129.369C163.272 138.001 164.021 145.607 163.743 149.316L171.89 153.692C171.89 153.692 175.659 148.273 179.302 145.936C182.946 143.598 195.069 137.334 199.871 130.933C202.963 126.794 203.56 118.283 196.183 110.865C191.645 106.33 185.538 103.713 179.125 103.553Z" fill="black"/>
<path d="M159.846 158.737L167.204 162.714L162.417 168.796L157.509 166.57L159.846 158.737Z" fill="black"/>
<path d="M160.206 158.985C160.14 158.96 160.869 156.774 161.835 154.107C162.802 151.441 163.637 149.29 163.702 149.315C163.768 149.341 163.04 151.522 162.073 154.193C161.107 156.865 160.272 159.005 160.206 158.985Z" fill="black"/>
<path d="M166.743 162.426C166.682 162.391 167.836 160.326 169.313 157.816C170.791 155.307 172.041 153.318 172.106 153.318C172.172 153.318 171.013 155.418 169.531 157.928C168.048 160.437 166.798 162.451 166.743 162.426Z" fill="black"/>
<g opacity="0.4">
<path opacity="0.4" d="M181.554 103.786C181.225 103.786 177.177 108.542 175.386 111.75C169.36 122.543 169.086 133.043 167.417 145.288C167.179 147.039 166.308 150.808 166.324 150.722C167.214 151.421 170.21 152.812 170.21 152.812C170.21 152.812 173.038 149.402 174.161 147.686C178.655 140.82 183.538 135.461 187.388 128.21C191.239 120.959 194.943 114.548 191.381 107.13C191.381 107.13 185.197 103.578 181.554 103.786Z" fill="black"/>
</g>
<path d="M199.871 132.015C199.829 131.941 199.793 131.863 199.765 131.783C199.699 131.631 199.618 131.393 199.482 131.1C199.1 130.25 198.623 129.447 198.06 128.706C197.195 127.562 196.139 126.576 194.938 125.792C193.399 124.772 191.644 124.122 189.812 123.894H189.751L189.721 123.854C188.737 122.503 187.639 121.24 186.437 120.079C185.122 118.809 183.605 117.766 181.949 116.992C180.285 116.239 178.465 115.892 176.641 115.98C174.979 116.045 173.369 116.582 172.001 117.529L171.925 117.579L171.859 117.519C170.468 116.298 168.739 115.53 166.9 115.317C165.473 115.155 164.027 115.339 162.685 115.854C161.817 116.186 161.002 116.645 160.267 117.215C160.014 117.417 159.821 117.579 159.7 117.691C159.64 117.751 159.574 117.805 159.503 117.852C159.556 117.787 159.614 117.724 159.675 117.665C159.791 117.544 159.973 117.372 160.221 117.159C160.946 116.557 161.763 116.073 162.64 115.727C163.999 115.182 165.47 114.977 166.926 115.13C168.808 115.333 170.583 116.108 172.011 117.352H171.869C173.271 116.374 174.923 115.817 176.631 115.748C178.492 115.652 180.349 115.999 182.05 116.76C183.732 117.546 185.271 118.608 186.604 119.902C187.816 121.074 188.92 122.353 189.903 123.722L189.827 123.677C191.691 123.913 193.473 124.586 195.029 125.64C196.239 126.447 197.299 127.459 198.161 128.63C198.718 129.387 199.18 130.21 199.537 131.079C199.664 131.378 199.735 131.621 199.79 131.778C199.822 131.855 199.849 131.935 199.871 132.015Z" fill="black"/>
<path d="M184.721 142.768C184.596 142.141 184.358 141.543 184.018 141.002C183.62 140.383 183.085 139.864 182.454 139.484C181.648 138.985 180.702 138.761 179.757 138.846H179.656V138.745C179.459 137.534 178.955 136.393 178.192 135.431C177.43 134.47 176.434 133.719 175.3 133.25C174.294 132.857 173.214 132.693 172.137 132.769C171.148 132.841 170.184 133.119 169.309 133.584L169.233 133.624L169.172 133.559C168.414 132.765 167.424 132.233 166.343 132.041C165.505 131.878 164.64 131.905 163.813 132.122C163.08 132.326 162.393 132.67 161.789 133.134C161.789 133.134 161.82 133.088 161.896 133.022C161.972 132.957 162.083 132.85 162.24 132.734C162.702 132.407 163.215 132.159 163.758 132C164.605 131.756 165.496 131.711 166.364 131.869C167.494 132.055 168.533 132.604 169.324 133.432L169.187 133.407C170.087 132.929 171.076 132.643 172.092 132.567C173.205 132.489 174.322 132.662 175.36 133.073C176.609 133.577 177.691 134.422 178.482 135.512C179.194 136.469 179.66 137.586 179.838 138.765L179.722 138.674C180.71 138.597 181.696 138.844 182.53 139.378C183.172 139.776 183.713 140.318 184.109 140.961C184.363 141.373 184.544 141.825 184.645 142.297C184.671 142.421 184.69 142.546 184.701 142.672C184.71 142.703 184.717 142.735 184.721 142.768Z" fill="black"/>
<path d="M165.782 164.632C165.782 164.632 165.701 164.531 165.514 164.45C165.232 164.365 164.929 164.375 164.654 164.48C164.442 164.547 164.223 164.586 164.001 164.597C163.864 164.596 163.729 164.567 163.604 164.512C163.479 164.457 163.366 164.378 163.272 164.278C162.883 163.868 162.736 163.266 162.367 162.876C162.282 162.781 162.178 162.705 162.06 162.655C161.943 162.605 161.816 162.582 161.688 162.588C161.428 162.616 161.17 162.669 160.919 162.745C160.669 162.816 160.406 162.83 160.15 162.785C159.881 162.719 159.636 162.578 159.444 162.378C159.251 162.178 159.119 161.928 159.062 161.657C159.028 161.545 159.028 161.425 159.062 161.313C159.062 161.313 159.062 161.434 159.148 161.637C159.243 161.916 159.42 162.161 159.654 162.34C159.808 162.463 159.991 162.545 160.186 162.578C160.412 162.608 160.642 162.588 160.859 162.517C161.124 162.432 161.397 162.374 161.673 162.345C161.836 162.336 161.999 162.363 162.15 162.425C162.3 162.487 162.435 162.583 162.544 162.704C162.974 163.21 163.105 163.767 163.434 164.116C163.58 164.278 163.783 164.377 164.001 164.389C164.204 164.387 164.407 164.358 164.603 164.303C164.915 164.206 165.252 164.228 165.549 164.364C165.762 164.485 165.792 164.632 165.782 164.632Z" fill="black"/>
<path d="M166.627 163.438C165.394 162.925 164.196 162.334 163.039 161.667C161.841 161.074 160.68 160.408 159.563 159.673C160.796 160.189 161.996 160.781 163.156 161.444C164.352 162.038 165.511 162.704 166.627 163.438Z" fill="black"/>
<path d="M165.165 165.305C165.165 165.305 165.064 165.356 164.886 165.437C164.795 165.477 164.694 165.538 164.553 165.599C164.39 165.655 164.218 165.678 164.047 165.664C163.602 165.64 163.177 165.475 162.832 165.194C162.631 165.023 162.473 164.806 162.372 164.561C162.289 164.322 162.168 164.098 162.012 163.899C161.83 163.745 161.617 163.631 161.388 163.565C161.159 163.499 160.918 163.481 160.682 163.514C160.251 163.564 159.815 163.523 159.401 163.393C159.118 163.285 158.887 163.073 158.754 162.801C158.673 162.603 158.703 162.477 158.713 162.482C158.723 162.487 158.744 162.593 158.845 162.755C158.991 162.979 159.211 163.146 159.467 163.226C159.861 163.324 160.27 163.343 160.671 163.281C160.942 163.242 161.217 163.261 161.479 163.338C161.741 163.414 161.984 163.547 162.189 163.727C162.361 163.948 162.494 164.195 162.584 164.46C162.67 164.675 162.803 164.867 162.974 165.022C163.28 165.279 163.655 165.44 164.052 165.487C164.323 165.512 164.595 165.463 164.841 165.346C165.048 165.29 165.165 165.29 165.165 165.305Z" fill="black"/>
<path d="M109.611 118.05L122.337 116.162L116.265 107.56L113.006 107.753C111.929 107.815 110.891 108.175 110.007 108.793C109.123 109.412 108.429 110.264 108.002 111.254C107.539 112.328 107.411 113.517 107.632 114.665L109.611 118.05Z" fill="black"/>
<path opacity="0.4" d="M109.611 118.05L122.337 116.162L116.265 107.56L113.006 107.753C111.929 107.815 110.891 108.175 110.007 108.793C109.123 109.412 108.429 110.264 108.002 111.254C107.539 112.328 107.411 113.517 107.632 114.665L109.611 118.05Z" fill="black"/>
<path d="M164.268 132.147C164.399 132.511 164.541 132.941 164.688 133.457C164.809 133.902 164.855 134.364 164.824 134.824C164.804 135.394 164.707 135.959 164.536 136.504C164.328 137.01 164.814 137.475 165.224 137.232C165.634 136.989 166.236 135.674 166.236 133.984C166.236 132.294 167.926 134.318 168.569 135.046C169.211 135.775 171.306 137.936 171.686 137.915C172.242 137.885 172.313 137.283 171.655 136.569C170.998 135.856 169.171 133.584 169.571 133.26C169.97 132.936 173.189 136.696 173.189 136.696C173.189 136.696 173.745 137.612 174.201 137.258C175.061 136.615 171.342 132.876 170.977 132.531C170.729 132.289 171.149 131.924 171.407 132.198C171.665 132.471 174.534 136.018 175.415 135.37C176.088 134.864 172.379 132.268 172.197 131.206C172.015 130.143 174.808 133.468 175.43 132.972C175.668 132.784 175.815 132.612 173.912 130.948C173.001 130.128 169.53 127.699 169.53 127.699L159.086 97.7996L151.021 102.419L164.268 132.147Z" fill="#FFBE9D"/>
<path d="M102.096 75.5964L90.4276 61.6713C90.2805 61.1907 90.0891 60.7249 89.8558 60.2798C89.5852 59.7242 89.2 59.2323 88.7255 58.8364C88.2511 58.4404 87.6982 58.1494 87.1032 57.9825C86.3644 57.8206 85.5144 57.9016 84.9325 57.4158C84.6744 57.1982 84.5024 56.9098 84.2291 56.6872C83.9559 56.4645 83.5055 56.4443 83.3284 56.7327C83.283 56.8452 83.2639 56.9667 83.2727 57.0877C83.2814 57.2088 83.3178 57.3262 83.379 57.431C83.8173 58.4613 84.5145 59.3607 85.403 60.0419C84.3101 60.3759 82.7465 60.8819 82.7465 60.8819C82.7465 60.8819 80.2823 58.2052 79.0173 58.2102C77.7523 58.2153 80.0293 60.6036 80.0293 60.6036C80.0293 60.6036 78.0053 58.7314 77.3779 59.2576C76.7504 59.7839 78.3595 61.1754 78.3595 61.1754C77.8762 60.8468 77.2987 60.6851 76.715 60.7149C76.1432 60.8111 75.6524 61.484 75.9611 61.9749C76.0927 62.1517 76.2667 62.2927 76.4671 62.3847L79.5739 64.1152C80.071 64.4466 80.64 64.6548 81.2336 64.7224C82.8123 64.773 84.0115 63.7965 85.5852 63.8369C85.5852 63.8369 94.3845 82.3616 95.2751 83.3179C96.1657 84.2743 115.515 85.5747 115.515 85.5747L126.703 75.9354L102.096 75.5964Z" fill="#FFBE9D"/>
<path d="M137.151 176.508L149.067 181.695L142.692 196.556C141.305 195.863 141.761 186.942 141.761 186.942L133.989 183.931L137.151 176.508Z" fill="black"/>
<g opacity="0.6">
<path opacity="0.6" d="M143.082 182.079C143.187 181.954 143.334 181.872 143.496 181.848C143.657 181.825 143.822 181.862 143.958 181.952C144.085 182.053 144.169 182.199 144.193 182.36C144.216 182.521 144.177 182.684 144.084 182.818C143.974 182.949 143.818 183.035 143.648 183.058C143.478 183.082 143.305 183.041 143.163 182.944C143.039 182.826 142.966 182.664 142.96 182.493C142.953 182.322 143.013 182.156 143.128 182.028" fill="white"/>
</g>
<path opacity="0.6" d="M149.068 181.694L147.844 181.219L142.187 195.645C142.187 195.645 142.187 196.434 142.693 196.556L149.068 181.694Z" fill="white"/>
<path d="M141.574 187.159C141.65 187.184 141.837 186.835 142.227 186.582C142.616 186.329 142.996 186.263 142.996 186.188C142.996 186.112 142.53 186.036 142.07 186.355C141.609 186.673 141.503 187.144 141.574 187.159Z" fill="black"/>
<path d="M141.549 188.991C141.615 189.042 141.873 188.779 142.288 188.662C142.703 188.546 143.052 188.617 143.082 188.546C143.113 188.475 142.718 188.247 142.207 188.399C141.696 188.551 141.483 188.961 141.549 188.991Z" fill="black"/>
<path d="M143.037 190.681C143.082 190.62 142.758 190.362 142.283 190.377C141.807 190.393 141.503 190.666 141.549 190.722C141.594 190.777 141.898 190.661 142.293 190.656C142.687 190.651 142.996 190.762 143.037 190.681Z" fill="black"/>
<path d="M139.879 186.274C139.96 186.274 140 185.894 140.208 185.5C140.415 185.105 140.678 184.837 140.633 184.771C140.587 184.705 140.192 184.902 139.96 185.373C139.727 185.844 139.808 186.284 139.879 186.274Z" fill="black"/>
<path d="M138.27 185.161C138.301 185.161 138.468 184.908 138.584 184.417C138.653 184.129 138.686 183.833 138.68 183.536C138.678 183.367 138.664 183.198 138.64 183.03C138.629 182.927 138.601 182.826 138.559 182.732C138.528 182.662 138.475 182.605 138.408 182.569C138.341 182.534 138.264 182.521 138.189 182.534C138.123 182.547 138.061 182.576 138.008 182.619C137.955 182.661 137.913 182.715 137.886 182.777C137.845 182.873 137.818 182.973 137.805 183.076C137.724 183.549 137.764 184.034 137.921 184.488C138.088 184.968 138.311 185.201 138.336 185.181C138.361 185.161 138.22 184.892 138.103 184.432C138.041 184.162 138.012 183.885 138.017 183.607C138.021 183.437 138.038 183.268 138.068 183.101C138.093 182.929 138.149 182.793 138.24 182.782C138.331 182.772 138.28 182.782 138.316 182.833C138.343 182.905 138.361 182.98 138.371 183.056C138.4 183.223 138.419 183.392 138.427 183.562C138.442 183.84 138.43 184.12 138.392 184.397C138.334 184.648 138.293 184.903 138.27 185.161Z" fill="black"/>
<path d="M138.411 185.115C138.411 185.115 138.239 184.837 137.779 184.609C137.509 184.477 137.218 184.393 136.919 184.361C136.751 184.343 136.581 184.343 136.413 184.361C136.297 184.36 136.183 184.388 136.081 184.443C135.98 184.498 135.893 184.578 135.831 184.675C135.805 184.742 135.798 184.815 135.812 184.886C135.825 184.956 135.858 185.022 135.907 185.075C135.979 185.149 136.06 185.214 136.15 185.267C136.306 185.365 136.477 185.438 136.656 185.484C136.951 185.558 137.261 185.558 137.556 185.484C138.062 185.358 138.285 185.095 138.265 185.08C138.021 185.164 137.773 185.235 137.521 185.292C137.253 185.331 136.98 185.31 136.721 185.231C136.571 185.184 136.428 185.116 136.296 185.029C136.15 184.938 136.048 184.827 136.089 184.776C136.133 184.725 136.187 184.685 136.248 184.658C136.31 184.63 136.376 184.617 136.443 184.619C136.611 184.603 136.781 184.603 136.949 184.619C137.224 184.638 137.495 184.696 137.754 184.791C138.138 184.953 138.386 185.145 138.411 185.115Z" fill="black"/>
<path d="M127.973 196.92L132.901 207.247L134.445 216.568C134.471 216.727 134.529 216.878 134.617 217.013C134.704 217.148 134.818 217.263 134.952 217.352C135.086 217.441 135.237 217.501 135.395 217.529C135.553 217.557 135.715 217.552 135.872 217.514C136.054 217.472 136.223 217.387 136.365 217.265C136.507 217.143 136.617 216.989 136.686 216.816C137.592 214.574 140.886 206.301 140.481 205.568C140.016 204.717 136.003 194.329 136.003 194.329L127.973 196.92Z" fill="black"/>
<path opacity="0.6" d="M135.871 217.489L140.162 204.839L140.365 205.279C140.536 205.661 140.567 206.091 140.451 206.494C140.137 207.571 139.211 210.542 136.716 216.776C136.646 216.955 136.532 217.115 136.384 217.239C136.237 217.364 136.06 217.449 135.871 217.489Z" fill="white"/>
<g opacity="0.6">
<path opacity="0.6" d="M136.509 202.435C136.422 202.587 136.395 202.765 136.433 202.935C136.47 203.105 136.569 203.255 136.711 203.356C136.86 203.448 137.039 203.48 137.21 203.444C137.381 203.408 137.532 203.308 137.632 203.164C137.721 203.002 137.747 202.814 137.706 202.634C137.665 202.454 137.56 202.295 137.409 202.188C137.245 202.108 137.055 202.095 136.881 202.153C136.707 202.21 136.563 202.334 136.478 202.496" fill="white"/>
</g>
<path d="M136.205 211.857C135.822 211.611 135.38 211.472 134.925 211.456C134.47 211.44 134.019 211.547 133.62 211.766C133.62 211.766 133.696 211.604 133.923 211.463C134.228 211.279 134.58 211.189 134.935 211.204C135.289 211.215 135.631 211.328 135.922 211.528C136.145 211.69 136.226 211.837 136.205 211.857Z" fill="black"/>
<path d="M136.114 213.588C135.741 213.553 135.366 213.543 134.991 213.557C134.626 213.644 134.266 213.752 133.913 213.881C133.857 213.841 134.262 213.375 134.955 213.304C135.157 213.255 135.368 213.255 135.569 213.305C135.771 213.354 135.958 213.451 136.114 213.588Z" fill="black"/>
<path d="M136.783 209.443C136.211 209.344 135.633 209.288 135.052 209.276C134.474 209.341 133.902 209.453 133.342 209.61C133.84 209.256 134.428 209.053 135.038 209.023C135.648 208.993 136.253 209.139 136.783 209.443Z" fill="black"/>
<path d="M135.548 206.18C135.548 206.256 134.865 206.271 134.101 206.585C133.337 206.898 132.826 207.339 132.775 207.283C133.065 206.836 133.501 206.505 134.01 206.347C134.487 206.111 135.032 206.052 135.548 206.18Z" fill="black"/>
<path d="M134.176 203.108C133.655 203.167 133.145 203.297 132.658 203.493C132.207 203.756 131.795 204.082 131.434 204.459C131.408 204.459 131.459 204.262 131.641 204.019C131.879 203.698 132.192 203.439 132.552 203.265C132.908 203.087 133.302 202.997 133.701 203.002C134.004 203.012 134.181 203.083 134.176 203.108Z" fill="black"/>
<path d="M132.416 202.906C132.328 202.789 132.263 202.657 132.223 202.516C132.099 202.138 132.049 201.74 132.077 201.342C132.071 201.05 132.161 200.764 132.335 200.528C132.397 200.459 132.479 200.411 132.569 200.388C132.659 200.366 132.753 200.37 132.841 200.401C133.011 200.485 133.146 200.627 133.22 200.801C133.354 201.163 133.358 201.56 133.231 201.924C133.103 202.288 132.852 202.596 132.522 202.795C132.192 202.985 131.813 203.073 131.433 203.047C131.053 203.022 130.689 202.885 130.387 202.653C130.31 202.593 130.247 202.516 130.203 202.428C130.16 202.341 130.136 202.245 130.134 202.147C130.139 202.05 130.174 201.958 130.235 201.882C130.296 201.807 130.379 201.752 130.473 201.727C130.756 201.67 131.048 201.687 131.323 201.778C131.71 201.879 132.075 202.05 132.4 202.284C132.628 202.44 132.729 202.557 132.719 202.572C132.274 202.297 131.79 202.092 131.282 201.965C131.04 201.893 130.784 201.885 130.538 201.94C130.487 201.952 130.441 201.982 130.407 202.023C130.374 202.064 130.354 202.114 130.351 202.167C130.36 202.229 130.381 202.289 130.413 202.343C130.446 202.397 130.488 202.444 130.538 202.481C130.804 202.674 131.12 202.787 131.449 202.806C131.777 202.825 132.104 202.749 132.39 202.587C132.677 202.42 132.897 202.159 133.014 201.848C133.13 201.538 133.135 201.196 133.028 200.882C132.982 200.758 132.892 200.655 132.775 200.594C132.727 200.572 132.673 200.566 132.621 200.576C132.569 200.587 132.522 200.615 132.486 200.654C132.338 200.853 132.257 201.094 132.254 201.342C132.215 201.869 132.27 202.398 132.416 202.906Z" fill="black"/>
<path d="M144.579 177.768L131.064 168.66L135.537 124.744L122.735 117.27L111.032 114.558C111.032 114.558 106.144 124.729 103.948 131.256C99.3228 145.105 96.0793 150.069 96.8232 160.098C97.0559 163.276 108.785 171.23 116.193 175.637C116.276 176.519 116.408 177.396 116.588 178.264C119.118 189.709 126.849 204.93 126.849 204.93L138.588 199.47L134.804 186.491L138.75 188.793L144.579 177.768ZM115.53 149.432L117.109 142.393C116.775 146.871 116.471 151.542 116.254 156.02C115.49 153.918 115.242 151.664 115.53 149.447V149.432Z" fill="black"/>
<path d="M126.869 204.93C126.833 204.87 126.803 204.808 126.778 204.743L126.53 204.191L125.625 202.051C124.845 200.184 123.727 197.497 122.386 194.132C121.045 190.767 119.457 186.78 117.832 182.276C117.433 181.148 117.043 179.989 116.674 178.79C116.512 178.183 116.304 177.586 116.198 176.943C116.168 176.786 116.132 176.624 116.107 176.467L116.051 175.987L115.945 175.025C115.803 173.73 115.69 172.411 115.606 171.068C115.565 170.4 115.53 169.722 115.5 169.044C115.469 168.366 115.449 167.673 115.5 166.98C115.702 161.464 116.162 156.232 116.547 151.471C116.932 146.71 117.301 142.429 117.605 138.821C117.908 135.213 118.111 132.309 118.212 130.29C118.278 129.278 118.313 128.499 118.333 127.972L118.369 127.365C118.36 127.298 118.36 127.23 118.369 127.163C118.374 127.23 118.374 127.298 118.369 127.365C118.369 127.517 118.369 127.714 118.369 127.972C118.369 128.504 118.343 129.288 118.298 130.295C118.212 132.319 118.035 135.233 117.767 138.836C117.498 142.439 117.139 146.725 116.755 151.486C116.37 156.248 115.93 161.48 115.743 166.98C115.702 167.668 115.743 168.346 115.743 169.029C115.743 169.712 115.803 170.38 115.849 171.053C115.93 172.403 116.039 173.716 116.178 174.995L116.284 175.961L116.34 176.437C116.365 176.594 116.4 176.746 116.431 176.903C116.532 177.52 116.734 178.122 116.896 178.724C117.255 179.913 117.645 181.072 118.04 182.2C119.629 186.699 121.202 190.701 122.518 194.066C123.833 197.431 124.931 200.138 125.685 202.01C126.055 202.941 126.348 203.665 126.551 204.171C126.642 204.409 126.718 204.596 126.768 204.733C126.819 204.869 126.869 204.93 126.869 204.93Z" fill="black"/>
<path d="M117.832 125.675C117.832 125.675 117.716 125.604 117.529 125.427C117.287 125.155 117.093 124.844 116.957 124.506C116.556 123.39 116.361 122.211 116.38 121.025C116.364 119.842 116.42 118.659 116.547 117.483C116.571 116.997 116.638 116.515 116.749 116.041C116.791 116.526 116.791 117.013 116.749 117.498C116.704 118.394 116.633 119.634 116.653 121C116.645 122.161 116.816 123.316 117.159 124.425C117.278 124.751 117.44 125.059 117.64 125.341C117.761 125.549 117.847 125.665 117.832 125.675Z" fill="black"/>
<path d="M112.782 115.226C112.902 115.623 112.936 116.04 112.883 116.451C112.816 117.458 112.481 118.429 111.912 119.264C111.344 120.098 110.563 120.766 109.65 121.197C109.286 121.396 108.884 121.516 108.471 121.551C108.471 121.511 108.911 121.389 109.569 121.045C110.425 120.59 111.158 119.933 111.704 119.132C112.251 118.331 112.595 117.409 112.706 116.446C112.792 115.697 112.737 115.226 112.782 115.226Z" fill="black"/>
<path d="M133.782 140.759C133.782 140.759 133.782 140.805 133.782 140.891C133.782 140.977 133.782 141.123 133.752 141.28C133.711 141.645 133.661 142.151 133.6 142.798C133.453 144.119 133.251 145.996 132.998 148.304C132.492 152.974 131.743 159.385 130.943 166.474C130.658 169.811 130.882 173.172 131.606 176.442C131.923 177.867 132.331 179.269 132.826 180.642C133.281 181.937 133.701 183.147 134.091 184.255C134.855 186.451 135.472 188.237 135.907 189.492C136.11 190.099 136.272 190.575 136.413 190.919L136.535 191.293C136.552 191.334 136.562 191.376 136.565 191.42C136.565 191.42 136.565 191.384 136.509 191.298C136.454 191.212 136.423 191.086 136.368 190.934C136.236 190.595 136.064 190.124 135.862 189.522L133.969 184.316C133.575 183.212 133.139 182.003 132.674 180.713C132.167 179.333 131.749 177.922 131.424 176.488C130.679 173.197 130.445 169.811 130.731 166.449C131.52 159.339 132.31 152.933 132.861 148.283C133.15 145.976 133.367 144.099 133.544 142.783C133.625 142.146 133.691 141.65 133.742 141.265C133.742 141.108 133.782 140.982 133.797 140.881C133.786 140.841 133.781 140.8 133.782 140.759Z" fill="black"/>
<path d="M111.032 114.482L113.107 109.185L117.838 116.238L111.528 114.665" fill="#FFBE9D"/>
<path d="M160.529 98.5587L154.917 85.9745C154.244 83.9505 152.984 83.6367 151.932 82.4628L137.87 74.5338C127.618 70.334 122.037 84.4109 122.037 84.4109L112.722 105.663C101.767 109.291 109.524 117.706 109.524 117.706C109.524 117.706 106.544 112.524 109.478 110.657C112.545 108.699 115.945 113.855 119.214 118.753C123.075 124.532 135.613 128.286 135.613 128.286C137.081 126.738 136.671 121.329 137.819 118.424C138.184 117.508 146.867 97.3949 146.867 97.3949L150.232 105.547C150.232 105.547 154.543 100.487 156.638 99.6871C157.9 99.2012 159.202 98.8238 160.529 98.5587Z" fill="black"/>
<path d="M135.608 107.505C135.48 107.621 135.337 107.722 135.183 107.803C134.775 108.04 134.346 108.242 133.903 108.405C132.429 108.961 130.837 109.126 129.281 108.886C127.724 108.646 126.256 108.008 125.018 107.034C124.644 106.745 124.297 106.424 123.981 106.073C123.855 105.953 123.749 105.815 123.667 105.663C123.702 105.627 124.173 106.199 125.124 106.892C126.36 107.804 127.799 108.403 129.318 108.638C130.836 108.872 132.389 108.735 133.842 108.238C134.966 107.864 135.608 107.464 135.608 107.505Z" fill="black"/>
<path d="M112.332 87.538L121.01 88.3577L134.895 73.6837L126.728 73.4003L112.19 74.8374C112.955 79.0325 113.003 83.3269 112.332 87.538Z" fill="black"/>
<path d="M124.36 79.8164C124.339 79.9108 124.303 80.0013 124.254 80.0846L123.905 80.8334C123.591 81.5115 123.151 82.4476 122.619 83.581C121.542 85.9086 120.089 89.147 118.571 92.7396C117.053 96.3322 115.606 99.5858 114.523 101.918C113.992 103.087 113.552 104.023 113.238 104.671L112.869 105.41C112.83 105.5 112.781 105.585 112.722 105.663C112.748 105.569 112.782 105.478 112.823 105.39L113.147 104.631L114.362 101.848C115.374 99.4644 116.785 96.2209 118.324 92.6384C119.862 89.0559 121.36 85.8175 122.458 83.5051C123.019 82.3514 123.47 81.4255 123.819 80.7879C123.981 80.4944 124.107 80.2515 124.208 80.0593C124.25 79.9731 124.301 79.8917 124.36 79.8164Z" fill="black"/>
<path d="M150.849 84.0819C150.875 84.1275 150.343 84.4058 149.6 85.0332C149.173 85.3989 148.782 85.8038 148.431 86.2426C148.003 86.7844 147.633 87.3695 147.328 87.9883C147.034 88.6113 146.803 89.2623 146.639 89.9313C146.512 90.4812 146.437 91.042 146.417 91.6062C146.381 92.5676 146.493 93.1646 146.442 93.1697C146.389 93.0387 146.355 92.9006 146.341 92.7598C146.303 92.5935 146.279 92.4242 146.27 92.2538C146.244 92.0322 146.232 91.8091 146.235 91.5859C146.231 91.0077 146.29 90.4308 146.412 89.8655C146.564 89.1676 146.793 88.4887 147.095 87.8415C147.412 87.2077 147.797 86.6105 148.243 86.0604C148.613 85.6181 149.029 85.2162 149.483 84.8612C149.654 84.7206 149.835 84.5921 150.025 84.4766C150.161 84.3791 150.305 84.2928 150.455 84.2186C150.578 84.1525 150.711 84.1063 150.849 84.0819Z" fill="black"/>
<path d="M153.273 63.928L145.131 79.1485C144.49 80.3456 143.419 81.2553 142.133 81.6946C140.848 82.1339 139.444 82.0703 138.204 81.5166C137.536 81.2143 136.937 80.7783 136.443 80.2354C135.95 79.6925 135.573 79.0543 135.336 78.3602C135.099 77.666 135.007 76.9307 135.065 76.1994C135.123 75.4682 135.33 74.7567 135.674 74.1088L137.076 71.4674C137.076 71.4674 133.534 69.1752 135.193 65.3499C136.671 61.9394 142.095 52.3052 143.244 50.2711L150.105 53.3425C151.019 53.8188 151.827 54.4734 152.483 55.2676C153.139 56.0618 153.629 56.9794 153.925 57.9663C154.22 58.9531 154.315 59.9892 154.203 61.0132C154.091 62.0372 153.774 63.0283 153.273 63.928Z" fill="#FFBE9D"/>
<path d="M137.075 71.4118C138.818 72.2299 140.764 72.5117 142.667 72.2214C142.667 72.2214 140.268 74.4326 136.625 72.3934L137.075 71.4118Z" fill="#EB996E"/>
<path d="M139.692 59.2425C139.628 59.3837 139.62 59.5447 139.672 59.6911C139.724 59.8375 139.831 59.958 139.971 60.0268C140.037 60.0629 140.11 60.0854 140.186 60.093C140.261 60.1006 140.337 60.0931 140.41 60.071C140.482 60.0489 140.55 60.0125 140.608 59.9641C140.667 59.9157 140.715 59.8562 140.75 59.789C140.815 59.6477 140.822 59.4868 140.77 59.3403C140.718 59.1939 140.611 59.0735 140.472 59.0047C140.405 58.9685 140.332 58.946 140.256 58.9384C140.181 58.9308 140.105 58.9383 140.032 58.9604C139.96 58.9826 139.892 59.0189 139.834 59.0673C139.776 59.1157 139.727 59.1753 139.692 59.2425Z" fill="black"/>
<path d="M139.722 58.7618C139.758 58.863 140.304 58.7618 140.891 59.0046C141.478 59.2475 141.772 59.7485 141.868 59.708C141.964 59.6675 141.898 59.5309 141.777 59.3133C141.601 59.0251 141.342 58.7974 141.033 58.6606C140.728 58.5239 140.388 58.4868 140.061 58.5543C139.824 58.61 139.702 58.696 139.722 58.7618Z" fill="black"/>
<path d="M145.162 61.9344C145.096 62.0755 145.088 62.2369 145.14 62.3837C145.192 62.5305 145.3 62.6509 145.44 62.7187C145.507 62.7547 145.581 62.7769 145.656 62.7841C145.732 62.7914 145.808 62.7834 145.881 62.7608C145.953 62.7382 146.021 62.7013 146.079 62.6524C146.137 62.6035 146.185 62.5435 146.219 62.4758C146.283 62.3351 146.289 62.1754 146.237 62.0302C146.185 61.8849 146.079 61.7654 145.941 61.6966C145.875 61.6598 145.801 61.6367 145.726 61.6287C145.65 61.6208 145.574 61.6281 145.501 61.6503C145.428 61.6725 145.361 61.7091 145.303 61.7579C145.244 61.8067 145.196 61.8667 145.162 61.9344Z" fill="black"/>
<path d="M145.42 61.4385C145.455 61.5397 146.002 61.4385 146.589 61.6814C147.176 61.9243 147.469 62.4303 147.565 62.3898C147.662 62.3493 147.601 62.2127 147.474 61.9901C147.298 61.7036 147.039 61.4777 146.731 61.3424C146.427 61.2034 146.086 61.1661 145.759 61.2361C145.521 61.2918 145.4 61.393 145.42 61.4385Z" fill="black"/>
<path d="M141.356 64.8235C141.09 64.5921 140.798 64.3933 140.486 64.2315C140.344 64.1455 140.212 64.0544 140.233 63.9431C140.253 63.8318 140.384 63.685 140.531 63.5434L141.482 62.6022C142.322 61.8218 143.099 60.9758 143.805 60.0722C142.899 60.7794 142.053 61.5596 141.275 62.4049L140.339 63.3612C140.164 63.4995 140.044 63.6948 140 63.9127C139.999 63.9749 140.012 64.0365 140.037 64.0933C140.062 64.1501 140.1 64.2007 140.147 64.2416C140.22 64.2999 140.299 64.3492 140.384 64.3884C140.687 64.5774 141.014 64.7239 141.356 64.8235Z" fill="black"/>
<path d="M142.895 65.9975C142.804 65.9519 142.52 66.5844 141.776 66.7919C141.033 66.9993 140.385 66.63 140.339 66.716C140.294 66.802 140.435 66.9032 140.719 67.0398C141.087 67.2123 141.505 67.2482 141.898 67.141C142.276 67.0407 142.6 66.7953 142.798 66.4579C142.94 66.2049 142.94 66.0177 142.895 65.9975Z" fill="black"/>
<path d="M146.295 59.0805C146.295 59.2678 146.897 59.4499 147.545 59.8395C148.192 60.2292 148.668 60.6643 148.82 60.5631C148.891 60.5125 148.86 60.3202 148.708 60.0571C148.493 59.7361 148.207 59.4679 147.873 59.2726C147.54 59.0772 147.166 58.9597 146.781 58.9287C146.487 58.9287 146.3 58.9945 146.295 59.0805Z" fill="black"/>
<path d="M140.693 57.178C140.739 57.3602 141.199 57.4006 141.705 57.6081C142.211 57.8156 142.56 58.1141 142.717 58.0028C142.874 57.8915 142.788 57.7903 142.662 57.5879C142.495 57.3252 142.248 57.123 141.958 57.011C141.671 56.8871 141.353 56.8569 141.048 56.925C140.795 56.9655 140.668 57.0768 140.693 57.178Z" fill="black"/>
<path d="M150.712 66.2101C150.793 66.2101 153.672 66.6048 152.427 69.1702C151.183 71.7356 148.885 69.9545 148.885 69.8786C148.885 69.8027 150.712 66.2101 150.712 66.2101Z" fill="#FFBE9D"/>
<path d="M150.151 69.2866C150.151 69.2866 150.181 69.3372 150.237 69.4131C150.323 69.5093 150.442 69.569 150.571 69.5801C150.791 69.558 151.001 69.4773 151.179 69.3465C151.357 69.2156 151.496 69.0394 151.583 68.8363C151.696 68.6201 151.76 68.3817 151.77 68.138C151.784 68.046 151.776 67.952 151.746 67.8639C151.716 67.7757 151.666 67.6962 151.598 67.632C151.553 67.5941 151.495 67.5734 151.436 67.5734C151.377 67.5734 151.32 67.5941 151.274 67.632C151.209 67.6876 151.198 67.7433 151.183 67.7433C151.168 67.7433 151.148 67.6725 151.219 67.5763C151.265 67.5197 151.329 67.4805 151.401 67.465C151.497 67.4469 151.597 67.4668 151.679 67.5207C151.774 67.5929 151.848 67.6878 151.896 67.7967C151.944 67.9055 151.963 68.0247 151.952 68.143C151.953 68.4179 151.887 68.6888 151.76 68.9324C151.662 69.1669 151.497 69.3673 151.285 69.5086C151.074 69.6498 150.825 69.7257 150.571 69.7268C150.492 69.7112 150.418 69.6792 150.353 69.633C150.287 69.5868 150.232 69.5274 150.191 69.4586C150.126 69.3524 150.141 69.2866 150.151 69.2866Z" fill="#EB996E"/>
<path d="M152.2 66.792C151.962 66.6716 151.696 66.6161 151.43 66.6312C151.163 66.6463 150.905 66.7315 150.682 66.878C150.348 67.1715 150.121 67.5763 149.787 67.89C149.633 68.0533 149.429 68.1607 149.207 68.1955C148.986 68.2304 148.759 68.1905 148.562 68.0823C148.447 67.9795 148.361 67.8482 148.313 67.7016C148.265 67.555 148.257 67.3983 148.289 67.2474C148.357 66.9446 148.482 66.6577 148.658 66.4024C149.352 65.2588 150.146 64.1658 150.743 62.9666C151.393 61.7821 151.676 60.4314 151.558 59.0856C151.489 58.4163 151.241 57.7778 150.841 57.2374C150.44 56.6969 149.901 56.2743 149.281 56.0142C148.446 55.7207 147.515 55.8067 146.66 55.5638C146.153 55.4119 145.688 55.1472 145.299 54.7896C144.91 54.432 144.607 53.9909 144.413 53.4994C144.312 53.3011 144.201 53.1085 144.079 52.9225C144.109 52.8618 144.413 52.3457 144.712 52.2445C146.968 51.4804 150.019 52.3558 151.887 53.8283C152.84 54.5689 153.62 55.5086 154.172 56.5818C154.724 57.655 155.036 58.8359 155.085 60.0419C155.11 62.4201 153.612 65.0412 152.221 66.8122" fill="black"/>
<path d="M152.225 66.5137C152.938 65.2993 154.092 64.4239 154.972 63.3309C155.853 62.238 156.49 60.6947 155.833 59.4398C155.62 59.0097 155.276 58.6504 155.099 58.2052C154.959 57.7429 154.874 57.2656 154.846 56.7833C154.732 56.0463 154.452 55.3448 154.028 54.7313C153.604 54.1179 153.046 53.6085 152.397 53.2413C151.496 52.7353 150.459 52.5329 149.543 52.0522C148.101 51.2932 147.043 49.8865 145.495 49.2844C145.251 49.1654 144.985 49.0993 144.714 49.0906C144.442 49.0819 144.172 49.1307 143.921 49.2338C143.801 49.2922 143.695 49.3753 143.609 49.4775C143.523 49.5798 143.46 49.699 143.423 49.8274C143.386 49.9558 143.377 50.0905 143.396 50.2228C143.414 50.355 143.461 50.4818 143.532 50.5949C143.502 50.4784 143.447 50.3698 143.37 50.2768C143.294 50.1837 143.198 50.1086 143.09 50.0565C142.981 50.0044 142.863 49.9767 142.742 49.9753C142.622 49.9739 142.503 49.9989 142.393 50.0484C142.178 50.1658 142.002 50.3441 141.888 50.5611C141.773 50.778 141.726 51.0239 141.751 51.2679C141.81 51.7549 142.001 52.2167 142.302 52.6037C143.24 53.9337 144.622 54.8862 146.198 55.2906L149.695 55.0174L152.559 57.1375L154.674 60.5125L150.833 65.5017L152.225 66.5137Z" fill="black"/>
<path d="M130.371 46.6026C130.229 44.3979 129.497 42.2719 128.253 40.4465C127.008 38.6212 125.296 37.1636 123.296 36.226C121.295 35.2884 119.08 34.9053 116.881 35.1165C114.682 35.3278 112.579 36.1258 110.794 37.4271C109.009 38.7285 107.606 40.4853 106.731 42.5143C105.857 44.5432 105.544 46.7696 105.824 48.9611C106.104 51.1525 106.968 53.2285 108.324 54.9721C109.681 56.7157 111.481 58.063 113.537 58.8731C113.633 60.3304 113.739 61.98 113.739 61.98L124.527 61.2817C124.527 61.2817 124.481 59.536 124.4 57.9775C126.345 56.8137 127.931 55.1362 128.985 53.1294C130.038 51.1227 130.518 48.8643 130.371 46.6026Z" fill="black"/>
<path d="M120.62 61.484C120.62 61.484 120.62 61.4283 120.62 61.3322C120.62 61.2361 120.62 61.0741 120.62 60.8819C120.62 60.4922 120.676 59.9103 120.737 59.1665C120.797 58.4227 120.883 57.5068 121.05 56.4594C121.235 55.266 121.535 54.0934 121.946 52.9579C122.188 52.2969 122.488 51.6586 122.842 51.0503C123.034 50.7181 123.308 50.4397 123.636 50.2407C123.814 50.1416 124.013 50.0866 124.216 50.0804C124.42 50.0743 124.621 50.1171 124.805 50.2053C124.999 50.2988 125.15 50.4638 125.225 50.6657C125.308 50.8701 125.308 51.0989 125.225 51.3033C125.044 51.6966 124.726 52.0099 124.329 52.1837C123.912 52.3473 123.466 52.4263 123.017 52.4162C122.569 52.4061 122.127 52.3072 121.717 52.125C121.307 51.9429 120.937 51.6812 120.629 51.3551C120.321 51.0291 120.081 50.6451 119.922 50.2255C119.735 49.7782 119.677 49.2873 119.755 48.8087C119.797 48.5542 119.927 48.3225 120.122 48.1534C120.317 47.9844 120.565 47.8886 120.823 47.8827C120.956 47.887 121.086 47.9256 121.201 47.9947C121.315 48.0638 121.41 48.1612 121.475 48.2774C121.611 48.5018 121.663 48.7672 121.622 49.0263C121.503 49.5254 121.228 49.9737 120.838 50.3065C120.466 50.6641 120.022 50.9392 119.537 51.1136C119.051 51.288 118.534 51.3578 118.019 51.3185C117.504 51.27 117.008 51.0974 116.573 50.8154C116.139 50.5334 115.779 50.1505 115.525 49.6993C115.394 49.477 115.311 49.23 115.281 48.974C115.25 48.7179 115.273 48.4584 115.348 48.2116C115.384 48.085 115.448 47.968 115.535 47.8688C115.622 47.7697 115.73 47.6908 115.85 47.6377C115.971 47.5846 116.102 47.5586 116.233 47.5616C116.365 47.5646 116.495 47.5965 116.613 47.655C116.846 47.7628 117.04 47.9394 117.169 48.161C117.29 48.377 117.369 48.6139 117.402 48.8593C117.467 49.3332 117.434 49.8153 117.306 50.2761C117.068 51.1793 116.494 51.9576 115.702 52.4519C114.946 52.9158 114.049 53.0952 113.172 52.9579C112.746 52.918 112.344 52.7404 112.028 52.4519C111.874 52.3012 111.775 52.1024 111.748 51.8881C111.722 51.6739 111.769 51.4569 111.882 51.2729C112.013 51.1035 112.206 50.9926 112.418 50.9643C112.62 50.9384 112.826 50.9645 113.015 51.0402C113.364 51.2106 113.647 51.4917 113.82 51.8396C114.174 52.4873 114.462 53.1198 114.756 53.722C115.899 56.1406 116.729 58.1393 117.286 59.5258C117.564 60.219 117.792 60.7604 117.913 61.1247C117.979 61.3069 118.03 61.4486 118.07 61.5447C118.089 61.5925 118.104 61.6415 118.116 61.6915L118.055 61.5498L117.883 61.1399L117.23 59.546C116.653 58.1697 115.808 56.1761 114.655 53.7675C114.361 53.1704 114.063 52.5278 113.713 51.8953C113.551 51.5727 113.288 51.3116 112.964 51.1515C112.801 51.0744 112.617 51.0516 112.44 51.0861C112.262 51.1207 112.1 51.211 111.978 51.3438C111.886 51.5043 111.85 51.6908 111.876 51.874C111.901 52.0571 111.987 52.2266 112.119 52.3558C112.415 52.6248 112.789 52.79 113.187 52.8263C114.033 52.9522 114.896 52.7728 115.621 52.3203C116.373 51.8384 116.915 51.0902 117.139 50.2255C117.263 49.7829 117.294 49.3195 117.23 48.8644C117.215 48.6381 117.143 48.4194 117.02 48.229C116.897 48.0387 116.727 47.8829 116.527 47.7765C116.426 47.7301 116.316 47.7061 116.205 47.7061C116.095 47.7061 115.985 47.7301 115.884 47.7765C115.782 47.8254 115.691 47.896 115.619 47.9833C115.546 48.0707 115.493 48.1727 115.464 48.2825C115.396 48.5094 115.376 48.7479 115.405 48.983C115.433 49.2182 115.51 49.4448 115.631 49.6487C115.877 50.0733 116.222 50.4328 116.636 50.6969C117.049 50.961 117.52 51.1221 118.009 51.1667C118.502 51.2032 118.997 51.135 119.462 50.9667C119.927 50.7984 120.351 50.5338 120.706 50.1901C121.068 49.8815 121.325 49.4675 121.44 49.006C121.475 48.7804 121.431 48.5494 121.313 48.3533C121.259 48.2591 121.182 48.18 121.089 48.1234C120.996 48.0668 120.891 48.0345 120.782 48.0295C120.559 48.0309 120.344 48.1157 120.18 48.2673C120.015 48.418 119.905 48.6191 119.866 48.8391C119.792 49.2902 119.846 49.7533 120.023 50.1749C120.174 50.5808 120.405 50.9524 120.702 51.2679C120.999 51.5835 121.356 51.8365 121.752 52.0123C122.147 52.1881 122.574 52.2831 123.008 52.2917C123.441 52.3003 123.871 52.2223 124.274 52.0623C124.64 51.9025 124.935 51.6146 125.103 51.2527C125.176 51.0821 125.181 50.8904 125.117 50.7165C125.053 50.5426 124.925 50.3996 124.759 50.3166C124.594 50.2365 124.411 50.1975 124.227 50.2028C124.043 50.208 123.863 50.2575 123.702 50.3469C123.395 50.5352 123.14 50.7959 122.958 51.1059C122.607 51.7063 122.309 52.3361 122.067 52.9883C121.652 54.113 121.347 55.2755 121.157 56.4594C120.98 57.5068 120.883 58.4176 120.813 59.1615C120.742 59.9053 120.706 60.4771 120.671 60.8768C120.671 61.064 120.641 61.2158 120.635 61.3221C120.63 61.4283 120.62 61.484 120.62 61.484Z" fill="black"/>
<path d="M123.823 63.3309L114.563 63.933C114.379 63.9441 114.197 63.8818 114.057 63.7596C113.918 63.6374 113.833 63.4651 113.82 63.2803C113.809 63.0958 113.871 62.9145 113.993 62.776C114.116 62.6376 114.288 62.5532 114.472 62.5415L123.737 61.9444C123.828 61.9383 123.92 61.9501 124.006 61.9794C124.093 62.0086 124.173 62.0546 124.241 62.1148C124.31 62.175 124.366 62.2481 124.406 62.33C124.446 62.4119 124.47 62.501 124.476 62.5921C124.487 62.7766 124.425 62.9579 124.302 63.0964C124.18 63.2348 124.008 63.3192 123.823 63.3309Z" fill="black"/>
<path d="M123.864 63.9381L114.599 64.5402C114.415 64.5523 114.244 64.6369 114.122 64.7755C114.001 64.914 113.939 65.0951 113.951 65.279C113.963 65.4628 114.048 65.6344 114.187 65.7558C114.325 65.8773 114.506 65.9387 114.69 65.9267L115.702 65.8609L117.22 68.3454C117.306 68.484 117.429 68.5967 117.574 68.6715C117.719 68.7463 117.882 68.7805 118.045 68.7704L121.354 68.5579C121.518 68.5452 121.675 68.4887 121.81 68.3943C121.944 68.3 122.051 68.1712 122.118 68.0215L123.262 65.3751L123.955 65.3296C124.132 65.3082 124.295 65.2197 124.409 65.0823C124.523 64.9448 124.58 64.7689 124.568 64.5907C124.556 64.4125 124.477 64.2455 124.346 64.1241C124.215 64.0028 124.042 63.9362 123.864 63.9381Z" fill="black"/>
<g opacity="0.2">
<path opacity="0.2" d="M109.645 40.065C110.327 39.3391 111.126 38.732 112.008 38.2687C112.585 37.953 113.205 37.7245 113.85 37.5907C114.315 37.5148 114.583 37.54 114.614 37.6362C114.679 37.8588 113.769 38.2484 112.59 39.1542C111.015 40.3002 109.803 41.8752 109.098 43.6912C108.394 45.5071 108.227 47.4874 108.617 49.3956C108.886 50.8883 109.296 51.789 109.123 51.9256C109.032 51.9813 108.82 51.8194 108.531 51.45C108.135 50.9161 107.824 50.3237 107.611 49.6942C107.283 48.7571 107.112 47.7723 107.105 46.7796C107.081 45.5442 107.296 44.3158 107.737 43.1617" fill="white"/>
</g>
<g opacity="0.2">
<path opacity="0.2" d="M117.62 37.9804C116.84 38.0208 116.137 37.8539 116.031 37.444C115.985 37.2416 116.117 37.0139 116.385 36.8267C116.732 36.6157 117.126 36.4925 117.531 36.4678C117.937 36.4431 118.342 36.5177 118.713 36.685C119.006 36.8419 119.158 37.0544 119.138 37.2618" fill="white"/>
</g>
<path d="M121.946 68.2492C121.725 68.2105 121.507 68.1581 121.293 68.0923C120.773 67.9824 120.239 67.95 119.709 67.9962C119.187 68.0525 118.676 68.1837 118.191 68.3858C117.817 68.5477 117.594 68.6793 117.584 68.659C117.747 68.5031 117.938 68.378 118.146 68.2897C118.638 68.0498 119.169 67.9007 119.714 67.8494C120.26 67.7968 120.81 67.8448 121.339 67.9911C121.554 68.0422 121.759 68.1294 121.946 68.2492Z" fill="black"/>
<path d="M123.287 65.4055C123.287 65.446 121.618 65.5877 119.548 65.7243C117.479 65.8609 115.809 65.9318 115.804 65.8862C115.799 65.8407 117.474 65.7041 119.538 65.5725C121.602 65.4409 123.282 65.365 123.287 65.4055Z" fill="black"/>
<path d="M122.776 66.5441C122.479 66.6178 122.176 66.6669 121.87 66.6908C121.309 66.7667 120.529 66.8477 119.664 66.9185C118.799 66.9894 118.02 67.0248 117.453 67.04C117.148 67.0677 116.842 67.0677 116.537 67.04C116.837 66.979 117.142 66.9451 117.448 66.9388L119.654 66.7718L121.86 66.5896C122.164 66.5485 122.47 66.5333 122.776 66.5441Z" fill="black"/>
<path d="M56.0649 128.524L58.0889 131.747C58.0889 131.747 66.6909 123.849 75.1867 126.08C75.1715 126.07 67.5208 119.583 56.0649 128.524Z" fill="black"/>
<path d="M75.1717 126.07C75.1717 126.07 81.4714 119.229 90.711 120.787L93.241 121.167L92.4415 119.715C92.4415 119.715 76.3558 114.209 75.1717 126.07Z" fill="black"/>
<path d="M61.8743 103.001C61.8743 103.001 49.2547 100.831 40.9866 105.309L54.1426 130.042C54.1426 130.042 64.9002 119.674 75.1923 126.06L61.8743 103.001Z" fill="#F5F5F5"/>
<path d="M61.8741 103.001C61.9001 103.033 61.9237 103.067 61.9449 103.103L62.1321 103.416L62.8608 104.646L65.5932 109.331L75.2679 126.029C75.28 126.051 75.2847 126.075 75.2815 126.099C75.2782 126.124 75.2671 126.146 75.2498 126.163C75.2326 126.18 75.2102 126.192 75.186 126.195C75.1619 126.198 75.1373 126.193 75.1161 126.181C73.6328 125.264 71.99 124.634 70.2737 124.324C69.3722 124.178 68.4594 124.114 67.5463 124.132C66.6072 124.173 65.673 124.292 64.7532 124.486C60.8653 125.442 57.2783 127.355 54.3195 130.052L54.2082 130.153C54.1968 130.165 54.1831 130.175 54.1679 130.182C54.1526 130.188 54.1362 130.192 54.1196 130.192C54.103 130.192 54.0866 130.188 54.0714 130.182C54.0561 130.175 54.0424 130.165 54.0311 130.153V130.128L40.8903 105.359C40.8833 105.348 40.8788 105.335 40.8771 105.322C40.8753 105.309 40.8764 105.295 40.8802 105.282C40.884 105.269 40.8905 105.257 40.8992 105.247C40.9079 105.237 40.9186 105.229 40.9307 105.223C43.5678 103.907 46.4133 103.06 49.3405 102.718C51.5742 102.443 53.8261 102.345 56.0753 102.425C57.9374 102.49 59.3896 102.637 60.3713 102.759C60.8773 102.819 61.2416 102.875 61.4946 102.92L61.783 102.971H61.8741H61.7779L61.4895 102.936C61.2365 102.905 60.8621 102.855 60.3662 102.804C59.3542 102.703 57.9273 102.576 56.0703 102.531C53.83 102.469 51.5883 102.582 49.3658 102.87C46.4628 103.227 43.6434 104.083 41.0319 105.4L41.0724 105.263L54.2284 129.997L54.0311 129.961L54.1424 129.86C55.6765 128.489 57.3643 127.3 59.172 126.318C60.9059 125.363 62.7662 124.657 64.6976 124.223C65.6318 124.023 66.5816 123.905 67.5362 123.869C68.4647 123.847 69.393 123.914 70.3091 124.066C72.0524 124.387 73.7204 125.03 75.2274 125.964L75.0706 126.116L65.5021 109.418L62.8102 104.691L62.1068 103.437C62.0309 103.295 61.9702 103.189 61.9297 103.108C61.9087 103.074 61.8901 103.038 61.8741 103.001Z" fill="black"/>
<path d="M81.7095 97.9262C81.7095 97.9262 72.1664 91.8542 62.0363 102.986L75.3339 126.055C75.3339 126.055 78.0461 116.694 93.9244 119.947L81.7095 97.9262Z" fill="#F5F5F5"/>
<path d="M81.7093 97.9263C81.7353 97.9553 81.7575 97.9876 81.7751 98.0224C81.8156 98.0983 81.8763 98.1945 81.9471 98.321L82.6201 99.4949L85.1501 103.968L94.0203 119.922C94.0274 119.934 94.0321 119.948 94.0339 119.962C94.0358 119.976 94.0348 119.99 94.031 120.004C94.0272 120.018 94.0207 120.03 94.012 120.042C94.0032 120.053 93.9922 120.062 93.9798 120.069C93.9554 120.078 93.9283 120.078 93.9039 120.069L91.5409 119.679C91.1373 119.611 90.7302 119.565 90.3214 119.543L89.0767 119.441C88.6543 119.406 88.2302 119.396 87.8066 119.411L86.5264 119.416C86.0913 119.416 85.6612 119.502 85.226 119.543C84.7869 119.579 84.3507 119.645 83.9205 119.74L82.6201 120.033L81.3399 120.484C80.9191 120.654 80.507 120.844 80.1053 121.056C79.8966 121.151 79.6968 121.264 79.5082 121.395L78.9263 121.769C78.5417 122.027 78.1977 122.341 77.8384 122.629C77.4994 122.947 77.1801 123.285 76.8821 123.641C76.2696 124.36 75.7898 125.183 75.4653 126.07C75.4538 126.102 75.4304 126.127 75.4 126.141C75.3696 126.156 75.3349 126.157 75.3033 126.146C75.2753 126.136 75.2519 126.116 75.2376 126.09L74.7012 125.164C70.0005 116.992 65.5932 109.377 61.9551 103.017C61.9429 102.998 61.9364 102.976 61.9364 102.953C61.9364 102.931 61.9429 102.909 61.9551 102.89C63.9635 100.616 66.4132 98.7741 69.1554 97.4759C71.2832 96.5046 73.6158 96.0669 75.951 96.2008C77.4425 96.2899 78.9101 96.6179 80.2976 97.1723C80.6607 97.3215 81.0154 97.4904 81.3602 97.6783L81.6233 97.8301L81.7042 97.8909L81.6132 97.8453L81.345 97.7087C81.1072 97.5923 80.753 97.4203 80.2773 97.2381C78.5021 96.5624 76.6095 96.2497 74.7113 96.3183C72.8131 96.387 70.948 96.8357 69.2263 97.6379C66.5151 98.9395 64.0951 100.776 62.1119 103.037V102.915L74.8884 125.078L75.445 125.994L75.2123 126.024C75.5468 125.102 76.0419 124.245 76.6746 123.494C76.9833 123.128 77.311 122.779 77.6562 122.447C78.0307 122.149 78.3798 121.825 78.7745 121.567L79.3665 121.182C79.5603 121.05 79.7651 120.935 79.9788 120.838C80.4038 120.641 80.8036 120.403 81.2387 120.251L82.5391 119.801L83.8649 119.502C84.3013 119.404 84.7444 119.338 85.1906 119.305C85.6308 119.264 86.066 119.183 86.5011 119.178H87.8015C88.2284 119.158 88.6563 119.168 89.0817 119.209L90.3366 119.315C90.7489 119.335 91.1596 119.38 91.5662 119.452L93.9444 119.851L93.828 120.013C90.2 113.435 87.169 107.925 85.0337 104.044C83.9762 102.116 83.1413 100.588 82.5695 99.5354L81.9218 98.3412C81.856 98.2096 81.8004 98.1084 81.7599 98.0325C81.7194 97.9566 81.7093 97.9263 81.7093 97.9263Z" fill="black"/>
<path d="M44.5284 93.4178L58.7622 120.818C58.7622 120.818 70.3243 120.312 75.2224 125.949L62.036 103.001C62.036 103.001 54.3043 93.4178 44.5284 93.4178Z" fill="#F5F5F5"/>
<path d="M44.5282 93.4178H44.8925L45.9855 93.4633C46.1069 93.4633 46.2385 93.4633 46.3701 93.4633L46.79 93.5342L47.7413 93.691C48.1099 93.7521 48.4735 93.8401 48.8292 93.9541C49.2416 94.053 49.6486 94.1729 50.0487 94.3134C53.449 95.4469 58.0131 98.1894 62.1117 102.915L75.3183 125.847C75.3349 125.876 75.3394 125.91 75.3309 125.943C75.3224 125.975 75.3015 126.002 75.2728 126.019C75.2512 126.037 75.2245 126.046 75.1969 126.046C75.1693 126.046 75.1425 126.037 75.121 126.019L74.5644 125.463C73.5062 124.447 72.2716 123.632 70.9212 123.059C69.6132 122.475 68.2481 122.027 66.8479 121.723C64.1909 121.134 61.4728 120.865 58.7519 120.924C58.7304 120.924 58.7092 120.919 58.6905 120.908C58.6719 120.897 58.6564 120.882 58.6456 120.863C54.4964 112.818 50.9544 105.941 48.4396 101.074C47.2151 98.6701 46.2334 96.7473 45.5402 95.4216C45.2113 94.7789 44.9533 94.278 44.7762 93.9036L44.5839 93.5241L44.5232 93.3976C44.5534 93.4402 44.5788 93.486 44.5991 93.5342L44.8116 93.9238L45.6111 95.4418L48.5762 101.119L58.848 120.762L58.7418 120.701C61.4809 120.635 64.2179 120.9 66.8934 121.491C68.3086 121.798 69.6887 122.249 71.0123 122.837C72.3892 123.424 73.6477 124.258 74.7263 125.296L75.3031 125.863L75.0957 126.009C70.2027 117.483 65.674 109.579 61.9397 103.057C60.1105 100.922 58.0175 99.0278 55.7108 97.4203C53.9505 96.1767 52.0307 95.1759 50.0031 94.445C49.6049 94.3014 49.1995 94.1781 48.7887 94.0756C48.4368 93.9579 48.0765 93.8666 47.711 93.8024L46.7647 93.6303L46.3549 93.5544L45.9804 93.5241L44.5282 93.4178Z" fill="black"/>
<path d="M88.9553 171.129L89.2589 171.635C89.6018 172.205 90.1004 172.665 90.6959 172.961L91.2019 173.224L90.6959 173.527C90.1279 173.873 89.6685 174.371 89.3702 174.964L89.1071 175.496L88.8035 174.99C88.4605 174.42 87.9619 173.96 87.3664 173.664L86.8351 173.401L87.3411 173.097C87.9121 172.756 88.3725 172.257 88.6668 171.66L88.9553 171.129Z" fill="black"/>
<path d="M60.9025 66.7565L61.2061 67.2625C61.5494 67.8307 62.048 68.2889 62.6432 68.5831L63.1492 68.8463L62.6432 69.1549C62.0712 69.4952 61.6106 69.9945 61.3174 70.592L61.0543 71.098L60.7507 70.592C60.4073 70.0208 59.9066 69.5605 59.3086 69.2662L58.7773 69.0031L59.2833 68.6995C59.852 68.353 60.3115 67.8532 60.609 67.2574L60.9025 66.7565Z" fill="black"/>
<path d="M190.732 84.765L191.036 85.271C191.379 85.8422 191.88 86.3024 192.478 86.5967L193.009 86.8599L192.503 87.1634C191.935 87.5085 191.476 88.0089 191.182 88.6056L190.919 89.1116L190.611 88.6056C190.269 88.0362 189.77 87.5777 189.174 87.2849L188.637 87.0319L189.143 86.7232C189.715 86.3829 190.176 85.8837 190.469 85.2862L190.732 84.765Z" fill="black"/>
<path d="M175.4 177.682L175.704 178.188C176.049 178.756 176.549 179.215 177.146 179.509L177.677 179.772L177.171 180.08C176.601 180.424 176.141 180.922 175.845 181.517L175.587 182.049L175.279 181.543C174.937 180.972 174.438 180.511 173.841 180.217L173.31 179.954L173.816 179.65C174.387 179.307 174.848 178.806 175.142 178.208L175.4 177.682Z" fill="black"/>
<path d="M178.319 197.208L178.466 197.269C178.627 197.332 178.802 197.349 178.972 197.32L179.129 197.289L179.068 197.436C179.006 197.597 178.988 197.772 179.018 197.942L179.048 198.099L178.901 198.038C178.74 197.976 178.565 197.958 178.395 197.988L178.238 198.018L178.299 197.871C178.362 197.71 178.379 197.535 178.35 197.365L178.319 197.208Z" fill="black"/>
<path d="M187.15 65.1778L187.292 65.2385C187.453 65.3005 187.628 65.318 187.798 65.2891L187.949 65.2588L187.894 65.4055C187.829 65.5658 187.811 65.7415 187.843 65.9115L187.874 66.0684L187.727 66.0076C187.566 65.9457 187.391 65.9282 187.221 65.957L187.069 65.9874L187.125 65.8407C187.19 65.6803 187.207 65.5047 187.175 65.3347L187.15 65.1778Z" fill="black"/>
<path d="M66.6051 53.1299L66.7518 53.1856C66.9121 53.2507 67.0878 53.2683 67.2578 53.2362H67.4147L67.3539 53.3779C67.292 53.539 67.2745 53.7137 67.3033 53.8839L67.3337 54.0357L67.187 53.98C67.0267 53.9149 66.851 53.8973 66.681 53.9294H66.5241L66.5848 53.7877C66.6468 53.6267 66.6643 53.4519 66.6354 53.2817L66.6051 53.1299Z" fill="black"/>
<path d="M81.4665 155.929L81.6133 155.985C81.773 156.052 81.9493 156.07 82.1193 156.035L82.2761 156.01L82.2154 156.157C82.1527 156.318 82.1352 156.492 82.1648 156.663L82.1952 156.814L82.0484 156.759C81.8881 156.694 81.7124 156.676 81.5424 156.708L81.3856 156.739L81.4463 156.592C81.5083 156.431 81.5257 156.256 81.4969 156.086L81.4665 155.929Z" fill="black"/>
<path d="M97.6126 195.665L97.4709 195.812L97.0509 196.232L95.4165 197.846L89.3445 203.7V203.64C89.6633 209.99 90.0681 218.592 90.4931 228.206V228.418L90.311 228.302L88.12 226.835L74.2354 217.539H74.205V217.509C72.1304 211.321 70.3847 206.099 69.145 202.415C68.5378 200.583 68.0622 199.136 67.7282 198.134L67.3639 196.996C67.3234 196.874 67.293 196.778 67.2728 196.707C67.2728 196.636 67.2424 196.606 67.2475 196.606L67.288 196.697L67.3942 196.986C67.4853 197.254 67.6169 197.628 67.7889 198.114L69.2563 202.38C70.5112 206.058 72.2923 211.265 74.3871 217.443L74.3467 217.393L88.2465 226.673L90.4375 228.135L90.2654 228.231C89.8556 218.617 89.4862 210.015 89.2129 203.655V203.619H89.2382L95.3507 197.821L97.0155 196.257L97.4506 195.857C97.5569 195.705 97.6126 195.665 97.6126 195.665Z" fill="black"/>
<path d="M91.146 225.297L91.1004 226.729L92.2592 227.579L90.8829 227.978L90.4325 229.339L89.6229 228.155L88.1909 228.15L89.0714 227.017L88.6312 225.651L89.9822 226.137L91.146 225.297Z" fill="black"/>
<path d="M74.4179 215.576L74.4482 216.502L75.2275 217.008L74.3521 217.317L74.1143 218.218L73.5475 217.484L72.6216 217.534L73.1427 216.765L72.8088 215.9L73.6993 216.163L74.4179 215.576Z" fill="black"/>
<path d="M67.2126 194.866L67.9109 195.766L69.0494 195.695L68.4118 196.642L68.8267 197.699L67.7338 197.385L66.8533 198.109L66.8128 196.97L65.8565 196.358L66.9242 195.969L67.2126 194.866Z" fill="black"/>
<path d="M96.9092 193.97L97.6125 194.866L98.746 194.8L98.1084 195.741L98.5233 196.804L97.4304 196.485L96.5499 197.208L96.5145 196.07L95.5531 195.458L96.6258 195.068L96.9092 193.97Z" fill="black"/>
<path d="M89.1173 202.643L89.5626 203.22L90.2862 203.174L89.8814 203.776L90.1445 204.454L89.4462 204.252L88.8846 204.712L88.8593 203.989L88.247 203.594L88.9301 203.346L89.1173 202.643Z" fill="black"/>
<path d="M62.3343 164.374C67.9067 164.374 72.424 159.857 72.424 154.284C72.424 148.712 67.9067 144.195 62.3343 144.195C56.762 144.195 52.2447 148.712 52.2447 154.284C52.2447 159.857 56.762 164.374 62.3343 164.374Z" fill="black"/>
<g opacity="0.3">
<path opacity="0.3" d="M61.0236 157.432C61.0246 157.758 60.9286 158.078 60.7477 158.35C60.5668 158.622 60.3093 158.834 60.0076 158.96C59.706 159.085 59.3739 159.118 59.0535 159.055C58.733 158.991 58.4386 158.834 58.2076 158.603C57.9766 158.372 57.8194 158.078 57.7559 157.757C57.6924 157.437 57.7255 157.105 57.851 156.803C57.9765 156.502 58.1887 156.244 58.4608 156.063C58.7328 155.882 59.0524 155.786 59.3791 155.787C59.8148 155.789 60.2323 155.962 60.5405 156.27C60.8486 156.578 61.0223 156.996 61.0236 157.432Z" fill="white"/>
</g>
<g opacity="0.3">
<path opacity="0.3" d="M58.6962 152.686C58.6972 152.876 58.6417 153.062 58.5367 153.221C58.4316 153.38 58.2818 153.504 58.1063 153.577C57.9307 153.651 57.7372 153.671 57.5504 153.634C57.3636 153.598 57.1918 153.506 57.0568 153.372C56.9219 153.238 56.8298 153.067 56.7923 152.88C56.7548 152.693 56.7735 152.5 56.8461 152.324C56.9187 152.148 57.042 151.997 57.2002 151.892C57.3584 151.786 57.5445 151.729 57.7348 151.729C57.9889 151.729 58.2327 151.83 58.4129 152.009C58.593 152.188 58.6949 152.431 58.6962 152.686Z" fill="white"/>
</g>
<path d="M52.5432 156.739C52.5887 156.916 43.9057 165.244 46.1473 167.021C48.3889 168.797 57.7853 164.243 65.8256 157.761C73.866 151.279 81.1828 143.405 79.1739 141.321C77.1651 139.236 67.1362 145.404 67.1362 145.404L68.3354 146.173C68.3354 146.173 74.4074 142.282 76.3201 143.79C78.2328 145.298 72.7781 151.198 65.0515 156.835C57.3249 162.472 49.8715 166.418 48.7229 164.875C47.5742 163.332 53.0239 158.186 53.0239 158.186L52.5432 156.739Z" fill="black"/>
<g opacity="0.3">
<path opacity="0.3" d="M52.5432 156.739C52.5887 156.916 43.9057 165.244 46.1473 167.021C48.3889 168.797 57.7853 164.243 65.8256 157.761C73.866 151.279 81.1828 143.405 79.1739 141.321C77.1651 139.236 67.1362 145.404 67.1362 145.404L68.3354 146.173C68.3354 146.173 74.4074 142.282 76.3201 143.79C78.2328 145.298 72.7781 151.198 65.0515 156.835C57.3249 162.472 49.8715 166.418 48.7229 164.875C47.5742 163.332 53.0239 158.186 53.0239 158.186L52.5432 156.739Z" fill="black"/>
</g>
<g opacity="0.3">
<path opacity="0.3" d="M56.7733 147.175C56.8543 147.271 56.1712 147.853 55.397 149.017C54.3699 150.512 53.8034 152.276 53.7674 154.09C53.7314 155.903 54.2276 157.688 55.1946 159.223C55.9232 160.422 56.581 161.029 56.495 161.121C56.409 161.212 55.6348 160.726 54.7341 159.532C54.2139 158.833 53.8012 158.06 53.5096 157.239C52.7713 155.196 52.8163 152.952 53.6361 150.94C53.9589 150.129 54.4024 149.371 54.9517 148.693C55.8979 147.539 56.7278 147.104 56.7733 147.175Z" fill="white"/>
</g>
<path d="M179.308 65.7506C182.623 62.5653 182.727 57.296 179.542 53.9814C176.357 50.6668 171.088 50.5619 167.773 53.7472C164.458 56.9325 164.353 62.2017 167.539 65.5164C170.724 68.831 175.993 68.9358 179.308 65.7506Z" fill="black"/>
<g opacity="0.4">
<path opacity="0.4" d="M176.255 56.5707C176.261 56.3026 176.347 56.0423 176.501 55.8228C176.655 55.6032 176.87 55.4342 177.12 55.3372C177.37 55.2402 177.643 55.2195 177.905 55.2777C178.167 55.3359 178.406 55.4704 178.591 55.6642C178.776 55.8581 178.9 56.1025 178.947 56.3666C178.993 56.6308 178.96 56.9027 178.852 57.1481C178.744 57.3936 178.565 57.6014 178.339 57.7454C178.113 57.8894 177.849 57.9631 177.581 57.9572C177.403 57.9539 177.227 57.9154 177.063 57.8438C176.9 57.7722 176.753 57.669 176.629 57.5401C176.506 57.4112 176.41 57.2592 176.345 57.0928C176.281 56.9265 176.25 56.749 176.255 56.5707Z" fill="black"/>
</g>
<g opacity="0.4">
<path opacity="0.4" d="M178.967 59.7383C178.971 59.581 179.02 59.4282 179.11 59.2992C179.2 59.1701 179.327 59.0708 179.473 59.0136C179.62 58.9564 179.78 58.9441 179.934 58.9781C180.087 59.0121 180.227 59.091 180.336 59.2047C180.445 59.3184 180.517 59.4618 180.544 59.6168C180.571 59.7718 180.552 59.9313 180.488 60.0751C180.425 60.219 180.32 60.3407 180.187 60.4249C180.054 60.5091 179.899 60.5519 179.742 60.5479C179.638 60.5459 179.535 60.5234 179.44 60.4816C179.344 60.4398 179.258 60.3795 179.186 60.3042C179.114 60.229 179.058 60.1402 179.02 60.0431C178.983 59.946 178.965 59.8424 178.967 59.7383Z" fill="black"/>
</g>
<g opacity="0.4">
<path opacity="0.4" d="M177.91 62.1671C177.948 62.1671 177.985 62.1748 178.02 62.1896C178.055 62.2045 178.087 62.2263 178.114 62.2537C178.14 62.2811 178.161 62.3135 178.174 62.3491C178.188 62.3846 178.194 62.4226 178.193 62.4606C178.19 62.538 178.158 62.6114 178.102 62.6652C178.046 62.719 177.972 62.7491 177.894 62.749C177.817 62.7464 177.745 62.7136 177.692 62.6578C177.639 62.6019 177.61 62.5275 177.611 62.4505C177.612 62.4122 177.62 62.3744 177.635 62.3393C177.651 62.3042 177.673 62.2726 177.701 62.2462C177.729 62.2198 177.761 62.1992 177.797 62.1857C177.833 62.1721 177.871 62.1658 177.91 62.1671Z" fill="black"/>
</g>
</svg>
